<svg width="348" height="326" viewBox="0 0 348 326" fill="none" xmlns="http://www.w3.org/2000/svg">
<rect width="348" height="326" fill="#333333"/>
<path d="M33.8 40H61.2C62.84 40 63.76 40.96 63.76 42.44V45.2C63.76 46.84 63.4 47.6 62.2 48.92L45.2 67.24C44.6 67.84 44.28 68 43.48 68H37.88C37.28 68 37.08 67.32 37.48 66.92L56.64 46.56C56.8 46.36 56.92 46.16 56.92 45.92V45.68C56.92 45.48 56.8 45.36 56.6 45.36H33.8C33.24 45.36 32.92 45.08 32.92 44.48V40.88C32.92 40.28 33.24 40 33.8 40ZM97.9641 40H100.444C100.884 40 101.004 40.4 100.724 40.72L79.1241 67.6C78.8841 67.88 78.6441 68 78.0441 68H75.6041C75.1641 68 75.0441 67.6 75.3241 67.28L96.9241 40.4C97.1241 40.12 97.4041 40 97.9641 40ZM97.2041 52.6H102.284C106.764 52.6 108.444 54.2 108.444 58.4V62.2C108.444 66.4 106.764 68 102.284 68H97.2041C92.7641 68 91.0841 66.4 91.0841 62.2V58.4C91.0841 54.2 92.7641 52.6 97.2041 52.6ZM73.6441 40H78.7241C83.2041 40 84.8841 41.6 84.8841 45.8V49.6C84.8841 53.8 83.2041 55.4 78.7241 55.4H73.6441C69.2041 55.4 67.5241 53.8 67.5241 49.6V45.8C67.5241 41.6 69.2041 40 73.6441 40ZM94.6041 58.72V61.88C94.6041 64.16 95.2441 64.8 97.4041 64.8H102.124C104.324 64.8 104.924 64.16 104.924 61.88V58.72C104.924 56.44 104.324 55.8 102.124 55.8H97.4041C95.2441 55.8 94.6041 56.44 94.6041 58.72ZM71.0441 46.12V49.28C71.0441 51.56 71.6841 52.2 73.8441 52.2H78.5641C80.7641 52.2 81.3641 51.56 81.3641 49.28V46.12C81.3641 43.84 80.7641 43.2 78.5641 43.2H73.8441C71.6841 43.2 71.0441 43.84 71.0441 46.12Z" fill="white"/>
<path d="M32.666 105.032C32.666 104.012 32.87 103.118 33.278 102.35C33.698 101.57 34.274 100.97 35.006 100.55C35.738 100.13 36.578 99.92 37.526 99.92C38.726 99.92 39.716 100.208 40.496 100.784C41.288 101.348 41.822 102.158 42.098 103.214H39.884C39.704 102.722 39.416 102.338 39.02 102.062C38.624 101.786 38.126 101.648 37.526 101.648C36.686 101.648 36.014 101.948 35.51 102.548C35.018 103.136 34.772 103.964 34.772 105.032C34.772 106.1 35.018 106.934 35.51 107.534C36.014 108.134 36.686 108.434 37.526 108.434C38.714 108.434 39.5 107.912 39.884 106.868H42.098C41.81 107.876 41.27 108.68 40.478 109.28C39.686 109.868 38.702 110.162 37.526 110.162C36.578 110.162 35.738 109.952 35.006 109.532C34.274 109.1 33.698 108.5 33.278 107.732C32.87 106.952 32.666 106.052 32.666 105.032ZM48.913 99.92C49.669 99.92 50.341 100.082 50.929 100.406C51.529 100.73 51.997 101.21 52.333 101.846C52.681 102.482 52.855 103.25 52.855 104.15V110H50.821V104.456C50.821 103.568 50.599 102.89 50.155 102.422C49.711 101.942 49.105 101.702 48.337 101.702C47.569 101.702 46.957 101.942 46.501 102.422C46.057 102.89 45.835 103.568 45.835 104.456V110H43.783V96.68H45.835V101.234C46.183 100.814 46.621 100.49 47.149 100.262C47.689 100.034 48.277 99.92 48.913 99.92ZM64.2024 104.798C64.2024 105.17 64.1784 105.506 64.1304 105.806H56.5524C56.6124 106.598 56.9064 107.234 57.4344 107.714C57.9624 108.194 58.6104 108.434 59.3784 108.434C60.4824 108.434 61.2624 107.972 61.7184 107.048H63.9324C63.6324 107.96 63.0864 108.71 62.2944 109.298C61.5144 109.874 60.5424 110.162 59.3784 110.162C58.4304 110.162 57.5784 109.952 56.8224 109.532C56.0784 109.1 55.4904 108.5 55.0584 107.732C54.6384 106.952 54.4284 106.052 54.4284 105.032C54.4284 104.012 54.6324 103.118 55.0404 102.35C55.4604 101.57 56.0424 100.97 56.7864 100.55C57.5424 100.13 58.4064 99.92 59.3784 99.92C60.3144 99.92 61.1484 100.124 61.8804 100.532C62.6124 100.94 63.1824 101.516 63.5904 102.26C63.9984 102.992 64.2024 103.838 64.2024 104.798ZM62.0604 104.15C62.0484 103.394 61.7784 102.788 61.2504 102.332C60.7224 101.876 60.0684 101.648 59.2884 101.648C58.5804 101.648 57.9744 101.876 57.4704 102.332C56.9664 102.776 56.6664 103.382 56.5704 104.15H62.0604ZM65.1778 104.996C65.1778 104 65.3818 103.118 65.7898 102.35C66.2098 101.582 66.7738 100.988 67.4818 100.568C68.2018 100.136 68.9938 99.92 69.8578 99.92C70.6378 99.92 71.3158 100.076 71.8918 100.388C72.4798 100.688 72.9478 101.066 73.2958 101.522V100.082H75.3658V110H73.2958V108.524C72.9478 108.992 72.4738 109.382 71.8738 109.694C71.2738 110.006 70.5898 110.162 69.8218 110.162C68.9698 110.162 68.1898 109.946 67.4818 109.514C66.7738 109.07 66.2098 108.458 65.7898 107.678C65.3818 106.886 65.1778 105.992 65.1778 104.996ZM73.2958 105.032C73.2958 104.348 73.1518 103.754 72.8638 103.25C72.5878 102.746 72.2218 102.362 71.7658 102.098C71.3098 101.834 70.8178 101.702 70.2898 101.702C69.7618 101.702 69.2698 101.834 68.8138 102.098C68.3578 102.35 67.9858 102.728 67.6978 103.232C67.4218 103.724 67.2838 104.312 67.2838 104.996C67.2838 105.68 67.4218 106.28 67.6978 106.796C67.9858 107.312 68.3578 107.708 68.8138 107.984C69.2818 108.248 69.7738 108.38 70.2898 108.38C70.8178 108.38 71.3098 108.248 71.7658 107.984C72.2218 107.72 72.5878 107.336 72.8638 106.832C73.1518 106.316 73.2958 105.716 73.2958 105.032ZM79.753 101.54C80.101 101.084 80.575 100.7 81.175 100.388C81.775 100.076 82.453 99.92 83.209 99.92C84.073 99.92 84.859 100.136 85.567 100.568C86.287 100.988 86.851 101.582 87.259 102.35C87.667 103.118 87.871 104 87.871 104.996C87.871 105.992 87.667 106.886 87.259 107.678C86.851 108.458 86.287 109.07 85.567 109.514C84.859 109.946 84.073 110.162 83.209 110.162C82.453 110.162 81.781 110.012 81.193 109.712C80.605 109.4 80.125 109.016 79.753 108.56V114.716H77.701V100.082H79.753V101.54ZM85.783 104.996C85.783 104.312 85.639 103.724 85.351 103.232C85.075 102.728 84.703 102.35 84.235 102.098C83.779 101.834 83.287 101.702 82.759 101.702C82.243 101.702 81.751 101.834 81.283 102.098C80.827 102.362 80.455 102.746 80.167 103.25C79.891 103.754 79.753 104.348 79.753 105.032C79.753 105.716 79.891 106.316 80.167 106.832C80.455 107.336 80.827 107.72 81.283 107.984C81.751 108.248 82.243 108.38 82.759 108.38C83.287 108.38 83.779 108.248 84.235 107.984C84.703 107.708 85.075 107.312 85.351 106.796C85.639 106.28 85.783 105.68 85.783 104.996ZM98.6302 104.798C98.6302 105.17 98.6062 105.506 98.5582 105.806H90.9802C91.0402 106.598 91.3342 107.234 91.8622 107.714C92.3902 108.194 93.0382 108.434 93.8062 108.434C94.9102 108.434 95.6902 107.972 96.1462 107.048H98.3602C98.0602 107.96 97.5142 108.71 96.7222 109.298C95.9422 109.874 94.9702 110.162 93.8062 110.162C92.8582 110.162 92.0062 109.952 91.2502 109.532C90.5062 109.1 89.9182 108.5 89.4862 107.732C89.0662 106.952 88.8562 106.052 88.8562 105.032C88.8562 104.012 89.0602 103.118 89.4682 102.35C89.8882 101.57 90.4702 100.97 91.2142 100.55C91.9702 100.13 92.8342 99.92 93.8062 99.92C94.7422 99.92 95.5762 100.124 96.3082 100.532C97.0402 100.94 97.6102 101.516 98.0182 102.26C98.4262 102.992 98.6302 103.838 98.6302 104.798ZM96.4882 104.15C96.4762 103.394 96.2062 102.788 95.6782 102.332C95.1502 101.876 94.4962 101.648 93.7162 101.648C93.0082 101.648 92.4022 101.876 91.8982 102.332C91.3942 102.776 91.0942 103.382 90.9982 104.15H96.4882ZM102.342 101.522C102.642 101.018 103.038 100.628 103.53 100.352C104.034 100.064 104.628 99.92 105.312 99.92V102.044H104.79C103.986 102.044 103.374 102.248 102.954 102.656C102.546 103.064 102.342 103.772 102.342 104.78V110H100.29V100.082H102.342V101.522ZM113.548 101.756V107.246C113.548 107.618 113.632 107.888 113.8 108.056C113.98 108.212 114.28 108.29 114.7 108.29H115.96V110H114.34C113.416 110 112.708 109.784 112.216 109.352C111.724 108.92 111.478 108.218 111.478 107.246V101.756H110.308V100.082H111.478V97.616H113.548V100.082H115.96V101.756H113.548ZM121.793 110.162C120.857 110.162 120.011 109.952 119.255 109.532C118.499 109.1 117.905 108.5 117.473 107.732C117.041 106.952 116.825 106.052 116.825 105.032C116.825 104.024 117.047 103.13 117.491 102.35C117.935 101.57 118.541 100.97 119.309 100.55C120.077 100.13 120.935 99.92 121.883 99.92C122.831 99.92 123.689 100.13 124.457 100.55C125.225 100.97 125.831 101.57 126.275 102.35C126.719 103.13 126.941 104.024 126.941 105.032C126.941 106.04 126.713 106.934 126.257 107.714C125.801 108.494 125.177 109.1 124.385 109.532C123.605 109.952 122.741 110.162 121.793 110.162ZM121.793 108.38C122.321 108.38 122.813 108.254 123.269 108.002C123.737 107.75 124.115 107.372 124.403 106.868C124.691 106.364 124.835 105.752 124.835 105.032C124.835 104.312 124.697 103.706 124.421 103.214C124.145 102.71 123.779 102.332 123.323 102.08C122.867 101.828 122.375 101.702 121.847 101.702C121.319 101.702 120.827 101.828 120.371 102.08C119.927 102.332 119.573 102.71 119.309 103.214C119.045 103.706 118.913 104.312 118.913 105.032C118.913 106.1 119.183 106.928 119.723 107.516C120.275 108.092 120.965 108.38 121.793 108.38ZM134.977 101.522C135.277 101.018 135.673 100.628 136.165 100.352C136.669 100.064 137.263 99.92 137.947 99.92V102.044H137.425C136.621 102.044 136.009 102.248 135.589 102.656C135.181 103.064 134.977 103.772 134.977 104.78V110H132.925V100.082H134.977V101.522ZM148.455 100.082V110H146.403V108.83C146.079 109.238 145.653 109.562 145.125 109.802C144.609 110.03 144.057 110.144 143.469 110.144C142.689 110.144 141.987 109.982 141.363 109.658C140.751 109.334 140.265 108.854 139.905 108.218C139.557 107.582 139.383 106.814 139.383 105.914V100.082H141.417V105.608C141.417 106.496 141.639 107.18 142.083 107.66C142.527 108.128 143.133 108.362 143.901 108.362C144.669 108.362 145.275 108.128 145.719 107.66C146.175 107.18 146.403 106.496 146.403 105.608V100.082H148.455ZM155.807 99.92C156.587 99.92 157.283 100.082 157.895 100.406C158.519 100.73 159.005 101.21 159.353 101.846C159.701 102.482 159.875 103.25 159.875 104.15V110H157.841V104.456C157.841 103.568 157.619 102.89 157.175 102.422C156.731 101.942 156.125 101.702 155.357 101.702C154.589 101.702 153.977 101.942 153.521 102.422C153.077 102.89 152.855 103.568 152.855 104.456V110H150.803V100.082H152.855V101.216C153.191 100.808 153.617 100.49 154.133 100.262C154.661 100.034 155.219 99.92 155.807 99.92ZM168.842 101.756V107.246C168.842 107.618 168.926 107.888 169.094 108.056C169.274 108.212 169.574 108.29 169.994 108.29H171.254V110H169.634C168.71 110 168.002 109.784 167.51 109.352C167.018 108.92 166.772 108.218 166.772 107.246V101.756H165.602V100.082H166.772V97.616H168.842V100.082H171.254V101.756H168.842ZM177.915 99.92C178.671 99.92 179.343 100.082 179.931 100.406C180.531 100.73 180.999 101.21 181.335 101.846C181.683 102.482 181.857 103.25 181.857 104.15V110H179.823V104.456C179.823 103.568 179.601 102.89 179.157 102.422C178.713 101.942 178.107 101.702 177.339 101.702C176.571 101.702 175.959 101.942 175.503 102.422C175.059 102.89 174.837 103.568 174.837 104.456V110H172.785V96.68H174.837V101.234C175.185 100.814 175.623 100.49 176.151 100.262C176.691 100.034 177.279 99.92 177.915 99.92ZM183.431 104.996C183.431 104 183.635 103.118 184.043 102.35C184.463 101.582 185.027 100.988 185.735 100.568C186.455 100.136 187.247 99.92 188.111 99.92C188.891 99.92 189.569 100.076 190.145 100.388C190.733 100.688 191.201 101.066 191.549 101.522V100.082H193.619V110H191.549V108.524C191.201 108.992 190.727 109.382 190.127 109.694C189.527 110.006 188.843 110.162 188.075 110.162C187.223 110.162 186.443 109.946 185.735 109.514C185.027 109.07 184.463 108.458 184.043 107.678C183.635 106.886 183.431 105.992 183.431 104.996ZM191.549 105.032C191.549 104.348 191.405 103.754 191.117 103.25C190.841 102.746 190.475 102.362 190.019 102.098C189.563 101.834 189.071 101.702 188.543 101.702C188.015 101.702 187.523 101.834 187.067 102.098C186.611 102.35 186.239 102.728 185.951 103.232C185.675 103.724 185.537 104.312 185.537 104.996C185.537 105.68 185.675 106.28 185.951 106.796C186.239 107.312 186.611 107.708 187.067 107.984C187.535 108.248 188.027 108.38 188.543 108.38C189.071 108.38 189.563 108.248 190.019 107.984C190.475 107.72 190.841 107.336 191.117 106.832C191.405 106.316 191.549 105.716 191.549 105.032ZM200.958 99.92C201.738 99.92 202.434 100.082 203.046 100.406C203.67 100.73 204.156 101.21 204.504 101.846C204.852 102.482 205.026 103.25 205.026 104.15V110H202.992V104.456C202.992 103.568 202.77 102.89 202.326 102.422C201.882 101.942 201.276 101.702 200.508 101.702C199.74 101.702 199.128 101.942 198.672 102.422C198.228 102.89 198.006 103.568 198.006 104.456V110H195.954V100.082H198.006V101.216C198.342 100.808 198.768 100.49 199.284 100.262C199.812 100.034 200.37 99.92 200.958 99.92ZM213.993 101.756V107.246C213.993 107.618 214.077 107.888 214.245 108.056C214.425 108.212 214.725 108.29 215.145 108.29H216.405V110H214.785C213.861 110 213.153 109.784 212.661 109.352C212.169 108.92 211.923 108.218 211.923 107.246V101.756H210.753V100.082H211.923V97.616H213.993V100.082H216.405V101.756H213.993ZM219.988 101.522C220.288 101.018 220.684 100.628 221.176 100.352C221.68 100.064 222.274 99.92 222.958 99.92V102.044H222.436C221.632 102.044 221.02 102.248 220.6 102.656C220.192 103.064 219.988 103.772 219.988 104.78V110H217.936V100.082H219.988V101.522ZM223.801 104.996C223.801 104 224.005 103.118 224.413 102.35C224.833 101.582 225.397 100.988 226.105 100.568C226.825 100.136 227.617 99.92 228.481 99.92C229.261 99.92 229.939 100.076 230.515 100.388C231.103 100.688 231.571 101.066 231.919 101.522V100.082H233.989V110H231.919V108.524C231.571 108.992 231.097 109.382 230.497 109.694C229.897 110.006 229.213 110.162 228.445 110.162C227.593 110.162 226.813 109.946 226.105 109.514C225.397 109.07 224.833 108.458 224.413 107.678C224.005 106.886 223.801 105.992 223.801 104.996ZM231.919 105.032C231.919 104.348 231.775 103.754 231.487 103.25C231.211 102.746 230.845 102.362 230.389 102.098C229.933 101.834 229.441 101.702 228.913 101.702C228.385 101.702 227.893 101.834 227.437 102.098C226.981 102.35 226.609 102.728 226.321 103.232C226.045 103.724 225.907 104.312 225.907 104.996C225.907 105.68 226.045 106.28 226.321 106.796C226.609 107.312 226.981 107.708 227.437 107.984C227.905 108.248 228.397 108.38 228.913 108.38C229.441 108.38 229.933 108.248 230.389 107.984C230.845 107.72 231.211 107.336 231.487 106.832C231.775 106.316 231.919 105.716 231.919 105.032ZM235.64 104.996C235.64 104 235.844 103.118 236.252 102.35C236.672 101.582 237.236 100.988 237.944 100.568C238.664 100.136 239.462 99.92 240.338 99.92C240.986 99.92 241.622 100.064 242.246 100.352C242.882 100.628 243.386 101 243.758 101.468V96.68H245.828V110H243.758V108.506C243.422 108.986 242.954 109.382 242.354 109.694C241.766 110.006 241.088 110.162 240.32 110.162C239.456 110.162 238.664 109.946 237.944 109.514C237.236 109.07 236.672 108.458 236.252 107.678C235.844 106.886 235.64 105.992 235.64 104.996ZM243.758 105.032C243.758 104.348 243.614 103.754 243.326 103.25C243.05 102.746 242.684 102.362 242.228 102.098C241.772 101.834 241.28 101.702 240.752 101.702C240.224 101.702 239.732 101.834 239.276 102.098C238.82 102.35 238.448 102.728 238.16 103.232C237.884 103.724 237.746 104.312 237.746 104.996C237.746 105.68 237.884 106.28 238.16 106.796C238.448 107.312 238.82 107.708 239.276 107.984C239.744 108.248 240.236 108.38 240.752 108.38C241.28 108.38 241.772 108.248 242.228 107.984C242.684 107.72 243.05 107.336 243.326 106.832C243.614 106.316 243.758 105.716 243.758 105.032ZM249.207 98.768C248.835 98.768 248.523 98.642 248.271 98.39C248.019 98.138 247.893 97.826 247.893 97.454C247.893 97.082 248.019 96.77 248.271 96.518C248.523 96.266 248.835 96.14 249.207 96.14C249.567 96.14 249.873 96.266 250.125 96.518C250.377 96.77 250.503 97.082 250.503 97.454C250.503 97.826 250.377 98.138 250.125 98.39C249.873 98.642 249.567 98.768 249.207 98.768ZM250.215 100.082V110H248.163V100.082H250.215ZM254.943 101.756V107.246C254.943 107.618 255.027 107.888 255.195 108.056C255.375 108.212 255.675 108.29 256.095 108.29H257.355V110H255.735C254.811 110 254.103 109.784 253.611 109.352C253.119 108.92 252.873 108.218 252.873 107.246V101.756H251.703V100.082H252.873V97.616H254.943V100.082H257.355V101.756H254.943ZM259.93 98.768C259.558 98.768 259.246 98.642 258.994 98.39C258.742 98.138 258.616 97.826 258.616 97.454C258.616 97.082 258.742 96.77 258.994 96.518C259.246 96.266 259.558 96.14 259.93 96.14C260.29 96.14 260.596 96.266 260.848 96.518C261.1 96.77 261.226 97.082 261.226 97.454C261.226 97.826 261.1 98.138 260.848 98.39C260.596 98.642 260.29 98.768 259.93 98.768ZM260.938 100.082V110H258.886V100.082H260.938ZM267.575 110.162C266.639 110.162 265.793 109.952 265.037 109.532C264.281 109.1 263.687 108.5 263.255 107.732C262.823 106.952 262.607 106.052 262.607 105.032C262.607 104.024 262.829 103.13 263.273 102.35C263.717 101.57 264.323 100.97 265.091 100.55C265.859 100.13 266.717 99.92 267.665 99.92C268.613 99.92 269.471 100.13 270.239 100.55C271.007 100.97 271.613 101.57 272.057 102.35C272.501 103.13 272.723 104.024 272.723 105.032C272.723 106.04 272.495 106.934 272.039 107.714C271.583 108.494 270.959 109.1 270.167 109.532C269.387 109.952 268.523 110.162 267.575 110.162ZM267.575 108.38C268.103 108.38 268.595 108.254 269.051 108.002C269.519 107.75 269.897 107.372 270.185 106.868C270.473 106.364 270.617 105.752 270.617 105.032C270.617 104.312 270.479 103.706 270.203 103.214C269.927 102.71 269.561 102.332 269.105 102.08C268.649 101.828 268.157 101.702 267.629 101.702C267.101 101.702 266.609 101.828 266.153 102.08C265.709 102.332 265.355 102.71 265.091 103.214C264.827 103.706 264.695 104.312 264.695 105.032C264.695 106.1 264.965 106.928 265.505 107.516C266.057 108.092 266.747 108.38 267.575 108.38ZM279.395 99.92C280.175 99.92 280.871 100.082 281.483 100.406C282.107 100.73 282.593 101.21 282.941 101.846C283.289 102.482 283.463 103.25 283.463 104.15V110H281.429V104.456C281.429 103.568 281.207 102.89 280.763 102.422C280.319 101.942 279.713 101.702 278.945 101.702C278.177 101.702 277.565 101.942 277.109 102.422C276.665 102.89 276.443 103.568 276.443 104.456V110H274.391V100.082H276.443V101.216C276.779 100.808 277.205 100.49 277.721 100.262C278.249 100.034 278.807 99.92 279.395 99.92ZM285.037 104.996C285.037 104 285.241 103.118 285.649 102.35C286.069 101.582 286.633 100.988 287.341 100.568C288.061 100.136 288.853 99.92 289.717 99.92C290.497 99.92 291.175 100.076 291.751 100.388C292.339 100.688 292.807 101.066 293.155 101.522V100.082H295.225V110H293.155V108.524C292.807 108.992 292.333 109.382 291.733 109.694C291.133 110.006 290.449 110.162 289.681 110.162C288.829 110.162 288.049 109.946 287.341 109.514C286.633 109.07 286.069 108.458 285.649 107.678C285.241 106.886 285.037 105.992 285.037 104.996ZM293.155 105.032C293.155 104.348 293.011 103.754 292.723 103.25C292.447 102.746 292.081 102.362 291.625 102.098C291.169 101.834 290.677 101.702 290.149 101.702C289.621 101.702 289.129 101.834 288.673 102.098C288.217 102.35 287.845 102.728 287.557 103.232C287.281 103.724 287.143 104.312 287.143 104.996C287.143 105.68 287.281 106.28 287.557 106.796C287.845 107.312 288.217 107.708 288.673 107.984C289.141 108.248 289.633 108.38 290.149 108.38C290.677 108.38 291.169 108.248 291.625 107.984C292.081 107.72 292.447 107.336 292.723 106.832C293.011 106.316 293.155 105.716 293.155 105.032ZM299.612 96.68V110H297.56V96.68H299.612ZM32.666 130.032C32.666 129.012 32.87 128.118 33.278 127.35C33.698 126.57 34.274 125.97 35.006 125.55C35.738 125.13 36.578 124.92 37.526 124.92C38.726 124.92 39.716 125.208 40.496 125.784C41.288 126.348 41.822 127.158 42.098 128.214H39.884C39.704 127.722 39.416 127.338 39.02 127.062C38.624 126.786 38.126 126.648 37.526 126.648C36.686 126.648 36.014 126.948 35.51 127.548C35.018 128.136 34.772 128.964 34.772 130.032C34.772 131.1 35.018 131.934 35.51 132.534C36.014 133.134 36.686 133.434 37.526 133.434C38.714 133.434 39.5 132.912 39.884 131.868H42.098C41.81 132.876 41.27 133.68 40.478 134.28C39.686 134.868 38.702 135.162 37.526 135.162C36.578 135.162 35.738 134.952 35.006 134.532C34.274 134.1 33.698 133.5 33.278 132.732C32.87 131.952 32.666 131.052 32.666 130.032ZM43.099 129.996C43.099 129 43.303 128.118 43.711 127.35C44.131 126.582 44.695 125.988 45.403 125.568C46.123 125.136 46.915 124.92 47.779 124.92C48.559 124.92 49.237 125.076 49.813 125.388C50.401 125.688 50.869 126.066 51.217 126.522V125.082H53.287V135H51.217V133.524C50.869 133.992 50.395 134.382 49.795 134.694C49.195 135.006 48.511 135.162 47.743 135.162C46.891 135.162 46.111 134.946 45.403 134.514C44.695 134.07 44.131 133.458 43.711 132.678C43.303 131.886 43.099 130.992 43.099 129.996ZM51.217 130.032C51.217 129.348 51.073 128.754 50.785 128.25C50.509 127.746 50.143 127.362 49.687 127.098C49.231 126.834 48.739 126.702 48.211 126.702C47.683 126.702 47.191 126.834 46.735 127.098C46.279 127.35 45.907 127.728 45.619 128.232C45.343 128.724 45.205 129.312 45.205 129.996C45.205 130.68 45.343 131.28 45.619 131.796C45.907 132.312 46.279 132.708 46.735 132.984C47.203 133.248 47.695 133.38 48.211 133.38C48.739 133.38 49.231 133.248 49.687 132.984C50.143 132.72 50.509 132.336 50.785 131.832C51.073 131.316 51.217 130.716 51.217 130.032ZM57.6742 126.522C57.9742 126.018 58.3702 125.628 58.8622 125.352C59.3662 125.064 59.9602 124.92 60.6442 124.92V127.044H60.1222C59.3182 127.044 58.7062 127.248 58.2862 127.656C57.8782 128.064 57.6742 128.772 57.6742 129.78V135H55.6222V125.082H57.6742V126.522ZM65.7704 135.162C64.9904 135.162 64.2884 135.024 63.6644 134.748C63.0524 134.46 62.5664 134.076 62.2064 133.596C61.8464 133.104 61.6544 132.558 61.6304 131.958H63.7544C63.7904 132.378 63.9884 132.732 64.3484 133.02C64.7204 133.296 65.1824 133.434 65.7344 133.434C66.3104 133.434 66.7544 133.326 67.0664 133.11C67.3904 132.882 67.5524 132.594 67.5524 132.246C67.5524 131.874 67.3724 131.598 67.0124 131.418C66.6644 131.238 66.1064 131.04 65.3384 130.824C64.5944 130.62 63.9884 130.422 63.5204 130.23C63.0524 130.038 62.6444 129.744 62.2964 129.348C61.9604 128.952 61.7924 128.43 61.7924 127.782C61.7924 127.254 61.9484 126.774 62.2604 126.342C62.5724 125.898 63.0164 125.55 63.5924 125.298C64.1804 125.046 64.8524 124.92 65.6084 124.92C66.7364 124.92 67.6424 125.208 68.3264 125.784C69.0224 126.348 69.3944 127.122 69.4424 128.106H67.3904C67.3544 127.662 67.1744 127.308 66.8504 127.044C66.5264 126.78 66.0884 126.648 65.5364 126.648C64.9964 126.648 64.5824 126.75 64.2944 126.954C64.0064 127.158 63.8624 127.428 63.8624 127.764C63.8624 128.028 63.9584 128.25 64.1504 128.43C64.3424 128.61 64.5764 128.754 64.8524 128.862C65.1284 128.958 65.5364 129.084 66.0764 129.24C66.7964 129.432 67.3844 129.63 67.8404 129.834C68.3084 130.026 68.7104 130.314 69.0464 130.698C69.3824 131.082 69.5564 131.592 69.5684 132.228C69.5684 132.792 69.4124 133.296 69.1004 133.74C68.7884 134.184 68.3444 134.532 67.7684 134.784C67.2044 135.036 66.5384 135.162 65.7704 135.162ZM72.2536 135.126C71.8816 135.126 71.5696 135 71.3176 134.748C71.0656 134.496 70.9396 134.184 70.9396 133.812C70.9396 133.44 71.0656 133.128 71.3176 132.876C71.5696 132.624 71.8816 132.498 72.2536 132.498C72.6136 132.498 72.9196 132.624 73.1716 132.876C73.4236 133.128 73.5496 133.44 73.5496 133.812C73.5496 134.184 73.4236 134.496 73.1716 134.748C72.9196 135 72.6136 135.126 72.2536 135.126Z" fill="white"/>
<path d="M47.68 213.88L44.384 225H42.32L39.984 216.584L37.504 225L35.456 225.016L32.304 213.88H34.24L36.544 222.936L39.04 213.88H41.088L43.408 222.888L45.728 213.88H47.68ZM49.7924 215.016C49.4617 215.016 49.1844 214.904 48.9604 214.68C48.7364 214.456 48.6244 214.179 48.6244 213.848C48.6244 213.517 48.7364 213.24 48.9604 213.016C49.1844 212.792 49.4617 212.68 49.7924 212.68C50.1124 212.68 50.3844 212.792 50.6084 213.016C50.8324 213.24 50.9444 213.517 50.9444 213.848C50.9444 214.179 50.8324 214.456 50.6084 214.68C50.3844 214.904 50.1124 215.016 49.7924 215.016ZM50.6884 216.184V225H48.8644V216.184H50.6884ZM54.8911 217.672V222.552C54.8911 222.883 54.9658 223.123 55.1151 223.272C55.2751 223.411 55.5418 223.48 55.9151 223.48H57.0351V225H55.5951C54.7738 225 54.1445 224.808 53.7071 224.424C53.2698 224.04 53.0511 223.416 53.0511 222.552V217.672H52.0111V216.184H53.0511V213.992H54.8911V216.184H57.0351V217.672H54.8911ZM62.9563 216.04C63.6283 216.04 64.2256 216.184 64.7483 216.472C65.2816 216.76 65.6976 217.187 65.9963 217.752C66.3056 218.317 66.4603 219 66.4603 219.8V225H64.6523V220.072C64.6523 219.283 64.4549 218.68 64.0603 218.264C63.6656 217.837 63.1269 217.624 62.4443 217.624C61.7616 217.624 61.2176 217.837 60.8123 218.264C60.4176 218.68 60.2203 219.283 60.2203 220.072V225H58.3963V213.16H60.2203V217.208C60.5296 216.835 60.9189 216.547 61.3883 216.344C61.8683 216.141 62.3909 216.04 62.9563 216.04ZM76.7511 216.04C77.4445 216.04 78.0631 216.184 78.6071 216.472C79.1618 216.76 79.5938 217.187 79.9031 217.752C80.2125 218.317 80.3671 219 80.3671 219.8V225H78.5591V220.072C78.5591 219.283 78.3618 218.68 77.9671 218.264C77.5725 217.837 77.0338 217.624 76.3511 217.624C75.6685 217.624 75.1245 217.837 74.7191 218.264C74.3245 218.68 74.1271 219.283 74.1271 220.072V225H72.3031V216.184H74.1271V217.192C74.4258 216.829 74.8045 216.547 75.2631 216.344C75.7325 216.141 76.2285 216.04 76.7511 216.04ZM86.1978 225.144C85.3658 225.144 84.6138 224.957 83.9418 224.584C83.2698 224.2 82.7418 223.667 82.3578 222.984C81.9738 222.291 81.7818 221.491 81.7818 220.584C81.7818 219.688 81.9791 218.893 82.3738 218.2C82.7684 217.507 83.3071 216.973 83.9898 216.6C84.6724 216.227 85.4351 216.04 86.2778 216.04C87.1204 216.04 87.8831 216.227 88.5658 216.6C89.2484 216.973 89.7871 217.507 90.1818 218.2C90.5764 218.893 90.7738 219.688 90.7738 220.584C90.7738 221.48 90.5711 222.275 90.1658 222.968C89.7604 223.661 89.2058 224.2 88.5018 224.584C87.8084 224.957 87.0404 225.144 86.1978 225.144ZM86.1978 223.56C86.6671 223.56 87.1044 223.448 87.5098 223.224C87.9258 223 88.2618 222.664 88.5178 222.216C88.7738 221.768 88.9018 221.224 88.9018 220.584C88.9018 219.944 88.7791 219.405 88.5338 218.968C88.2884 218.52 87.9631 218.184 87.5578 217.96C87.1524 217.736 86.7151 217.624 86.2458 217.624C85.7764 217.624 85.3391 217.736 84.9338 217.96C84.5391 218.184 84.2244 218.52 83.9898 218.968C83.7551 219.405 83.6378 219.944 83.6378 220.584C83.6378 221.533 83.8778 222.269 84.3578 222.792C84.8484 223.304 85.4618 223.56 86.1978 223.56ZM97.9171 217.48C98.2265 217.075 98.6478 216.733 99.1811 216.456C99.7145 216.179 100.317 216.04 100.989 216.04C101.757 216.04 102.456 216.232 103.085 216.616C103.725 216.989 104.226 217.517 104.589 218.2C104.952 218.883 105.133 219.667 105.133 220.552C105.133 221.437 104.952 222.232 104.589 222.936C104.226 223.629 103.725 224.173 103.085 224.568C102.456 224.952 101.757 225.144 100.989 225.144C100.317 225.144 99.7198 225.011 99.1971 224.744C98.6745 224.467 98.2478 224.125 97.9171 223.72V229.192H96.0931V216.184H97.9171V217.48ZM103.277 220.552C103.277 219.944 103.149 219.421 102.893 218.984C102.648 218.536 102.317 218.2 101.901 217.976C101.496 217.741 101.058 217.624 100.589 217.624C100.13 217.624 99.6931 217.741 99.2771 217.976C98.8718 218.211 98.5411 218.552 98.2851 219C98.0398 219.448 97.9171 219.976 97.9171 220.584C97.9171 221.192 98.0398 221.725 98.2851 222.184C98.5411 222.632 98.8718 222.973 99.2771 223.208C99.6931 223.443 100.13 223.56 100.589 223.56C101.058 223.56 101.496 223.443 101.901 223.208C102.317 222.963 102.648 222.611 102.893 222.152C103.149 221.693 103.277 221.16 103.277 220.552ZM114.697 220.376C114.697 220.707 114.676 221.005 114.633 221.272H107.897C107.95 221.976 108.212 222.541 108.681 222.968C109.15 223.395 109.726 223.608 110.409 223.608C111.39 223.608 112.084 223.197 112.489 222.376H114.457C114.19 223.187 113.705 223.853 113.001 224.376C112.308 224.888 111.444 225.144 110.409 225.144C109.566 225.144 108.809 224.957 108.137 224.584C107.476 224.2 106.953 223.667 106.569 222.984C106.196 222.291 106.009 221.491 106.009 220.584C106.009 219.677 106.19 218.883 106.553 218.2C106.926 217.507 107.444 216.973 108.105 216.6C108.777 216.227 109.545 216.04 110.409 216.04C111.241 216.04 111.982 216.221 112.633 216.584C113.284 216.947 113.79 217.459 114.153 218.12C114.516 218.771 114.697 219.523 114.697 220.376ZM112.793 219.8C112.782 219.128 112.542 218.589 112.073 218.184C111.604 217.779 111.022 217.576 110.329 217.576C109.7 217.576 109.161 217.779 108.713 218.184C108.265 218.579 107.998 219.117 107.913 219.8H112.793ZM118.3 217.672V222.552C118.3 222.883 118.375 223.123 118.524 223.272C118.684 223.411 118.951 223.48 119.324 223.48H120.444V225H119.004C118.183 225 117.553 224.808 117.116 224.424C116.679 224.04 116.46 223.416 116.46 222.552V217.672H115.42V216.184H116.46V213.992H118.3V216.184H120.444V217.672H118.3ZM123.629 217.464C123.896 217.016 124.248 216.669 124.685 216.424C125.133 216.168 125.661 216.04 126.269 216.04V217.928H125.805C125.09 217.928 124.546 218.109 124.173 218.472C123.81 218.835 123.629 219.464 123.629 220.36V225H121.805V216.184H123.629V217.464ZM131.45 225.144C130.618 225.144 129.866 224.957 129.194 224.584C128.522 224.2 127.994 223.667 127.61 222.984C127.226 222.291 127.034 221.491 127.034 220.584C127.034 219.688 127.231 218.893 127.626 218.2C128.02 217.507 128.559 216.973 129.242 216.6C129.924 216.227 130.687 216.04 131.53 216.04C132.372 216.04 133.135 216.227 133.818 216.6C134.5 216.973 135.039 217.507 135.434 218.2C135.828 218.893 136.026 219.688 136.026 220.584C136.026 221.48 135.823 222.275 135.418 222.968C135.012 223.661 134.458 224.2 133.754 224.584C133.06 224.957 132.292 225.144 131.45 225.144ZM131.45 223.56C131.919 223.56 132.356 223.448 132.762 223.224C133.178 223 133.514 222.664 133.77 222.216C134.026 221.768 134.154 221.224 134.154 220.584C134.154 219.944 134.031 219.405 133.786 218.968C133.54 218.52 133.215 218.184 132.81 217.96C132.404 217.736 131.967 217.624 131.498 217.624C131.028 217.624 130.591 217.736 130.186 217.96C129.791 218.184 129.476 218.52 129.242 218.968C129.007 219.405 128.89 219.944 128.89 220.584C128.89 221.533 129.13 222.269 129.61 222.792C130.1 223.304 130.714 223.56 131.45 223.56ZM139.333 213.16V225H137.509V213.16H139.333ZM148.444 225.144C147.75 225.144 147.126 225.021 146.572 224.776C146.028 224.52 145.596 224.179 145.276 223.752C144.956 223.315 144.785 222.829 144.764 222.296H146.652C146.684 222.669 146.86 222.984 147.18 223.24C147.51 223.485 147.921 223.608 148.412 223.608C148.924 223.608 149.318 223.512 149.596 223.32C149.884 223.117 150.028 222.861 150.028 222.552C150.028 222.221 149.868 221.976 149.548 221.816C149.238 221.656 148.742 221.48 148.06 221.288C147.398 221.107 146.86 220.931 146.444 220.76C146.028 220.589 145.665 220.328 145.356 219.976C145.057 219.624 144.908 219.16 144.908 218.584C144.908 218.115 145.046 217.688 145.324 217.304C145.601 216.909 145.996 216.6 146.508 216.376C147.03 216.152 147.628 216.04 148.3 216.04C149.302 216.04 150.108 216.296 150.716 216.808C151.334 217.309 151.665 217.997 151.708 218.872H149.884C149.852 218.477 149.692 218.163 149.404 217.928C149.116 217.693 148.726 217.576 148.236 217.576C147.756 217.576 147.388 217.667 147.132 217.848C146.876 218.029 146.748 218.269 146.748 218.568C146.748 218.803 146.833 219 147.004 219.16C147.174 219.32 147.382 219.448 147.628 219.544C147.873 219.629 148.236 219.741 148.716 219.88C149.356 220.051 149.878 220.227 150.284 220.408C150.7 220.579 151.057 220.835 151.356 221.176C151.654 221.517 151.809 221.971 151.82 222.536C151.82 223.037 151.681 223.485 151.404 223.88C151.126 224.275 150.732 224.584 150.22 224.808C149.718 225.032 149.126 225.144 148.444 225.144ZM155.599 217.672V222.552C155.599 222.883 155.673 223.123 155.823 223.272C155.983 223.411 156.249 223.48 156.623 223.48H157.743V225H156.303C155.481 225 154.852 224.808 154.415 224.424C153.977 224.04 153.759 223.416 153.759 222.552V217.672H152.719V216.184H153.759V213.992H155.599V216.184H157.743V217.672H155.599ZM162.928 225.144C162.096 225.144 161.344 224.957 160.672 224.584C160 224.2 159.472 223.667 159.088 222.984C158.704 222.291 158.512 221.491 158.512 220.584C158.512 219.688 158.709 218.893 159.104 218.2C159.498 217.507 160.037 216.973 160.72 216.6C161.402 216.227 162.165 216.04 163.008 216.04C163.85 216.04 164.613 216.227 165.296 216.6C165.978 216.973 166.517 217.507 166.912 218.2C167.306 218.893 167.504 219.688 167.504 220.584C167.504 221.48 167.301 222.275 166.896 222.968C166.49 223.661 165.936 224.2 165.232 224.584C164.538 224.957 163.77 225.144 162.928 225.144ZM162.928 223.56C163.397 223.56 163.834 223.448 164.24 223.224C164.656 223 164.992 222.664 165.248 222.216C165.504 221.768 165.632 221.224 165.632 220.584C165.632 219.944 165.509 219.405 165.264 218.968C165.018 218.52 164.693 218.184 164.288 217.96C163.882 217.736 163.445 217.624 162.976 217.624C162.506 217.624 162.069 217.736 161.664 217.96C161.269 218.184 160.954 218.52 160.72 218.968C160.485 219.405 160.368 219.944 160.368 220.584C160.368 221.533 160.608 222.269 161.088 222.792C161.578 223.304 162.192 223.56 162.928 223.56ZM170.811 217.48C171.12 217.075 171.542 216.733 172.075 216.456C172.608 216.179 173.211 216.04 173.883 216.04C174.651 216.04 175.35 216.232 175.979 216.616C176.619 216.989 177.12 217.517 177.483 218.2C177.846 218.883 178.027 219.667 178.027 220.552C178.027 221.437 177.846 222.232 177.483 222.936C177.12 223.629 176.619 224.173 175.979 224.568C175.35 224.952 174.651 225.144 173.883 225.144C173.211 225.144 172.614 225.011 172.091 224.744C171.568 224.467 171.142 224.125 170.811 223.72V229.192H168.987V216.184H170.811V217.48ZM176.171 220.552C176.171 219.944 176.043 219.421 175.787 218.984C175.542 218.536 175.211 218.2 174.795 217.976C174.39 217.741 173.952 217.624 173.483 217.624C173.024 217.624 172.587 217.741 172.171 217.976C171.766 218.211 171.435 218.552 171.179 219C170.934 219.448 170.811 219.976 170.811 220.584C170.811 221.192 170.934 221.725 171.179 222.184C171.435 222.632 171.766 222.973 172.171 223.208C172.587 223.443 173.024 223.56 173.483 223.56C173.952 223.56 174.39 223.443 174.795 223.208C175.211 222.963 175.542 222.611 175.787 222.152C176.043 221.693 176.171 221.16 176.171 220.552ZM182.711 225.144C182.017 225.144 181.393 225.021 180.839 224.776C180.295 224.52 179.863 224.179 179.543 223.752C179.223 223.315 179.052 222.829 179.031 222.296H180.919C180.951 222.669 181.127 222.984 181.447 223.24C181.777 223.485 182.188 223.608 182.679 223.608C183.191 223.608 183.585 223.512 183.863 223.32C184.151 223.117 184.295 222.861 184.295 222.552C184.295 222.221 184.135 221.976 183.815 221.816C183.505 221.656 183.009 221.48 182.327 221.288C181.665 221.107 181.127 220.931 180.711 220.76C180.295 220.589 179.932 220.328 179.623 219.976C179.324 219.624 179.175 219.16 179.175 218.584C179.175 218.115 179.313 217.688 179.591 217.304C179.868 216.909 180.263 216.6 180.775 216.376C181.297 216.152 181.895 216.04 182.567 216.04C183.569 216.04 184.375 216.296 184.983 216.808C185.601 217.309 185.932 217.997 185.975 218.872H184.151C184.119 218.477 183.959 218.163 183.671 217.928C183.383 217.693 182.993 217.576 182.503 217.576C182.023 217.576 181.655 217.667 181.399 217.848C181.143 218.029 181.015 218.269 181.015 218.568C181.015 218.803 181.1 219 181.271 219.16C181.441 219.32 181.649 219.448 181.895 219.544C182.14 219.629 182.503 219.741 182.983 219.88C183.623 220.051 184.145 220.227 184.551 220.408C184.967 220.579 185.324 220.835 185.623 221.176C185.921 221.517 186.076 221.971 186.087 222.536C186.087 223.037 185.948 223.485 185.671 223.88C185.393 224.275 184.999 224.584 184.487 224.808C183.985 225.032 183.393 225.144 182.711 225.144ZM190.966 220.552C190.966 219.667 191.147 218.883 191.51 218.2C191.883 217.517 192.384 216.989 193.014 216.616C193.654 216.232 194.358 216.04 195.126 216.04C195.819 216.04 196.422 216.179 196.934 216.456C197.456 216.723 197.872 217.059 198.182 217.464V216.184H200.022V225H198.182V223.688C197.872 224.104 197.451 224.451 196.918 224.728C196.384 225.005 195.776 225.144 195.094 225.144C194.336 225.144 193.643 224.952 193.014 224.568C192.384 224.173 191.883 223.629 191.51 222.936C191.147 222.232 190.966 221.437 190.966 220.552ZM198.182 220.584C198.182 219.976 198.054 219.448 197.798 219C197.552 218.552 197.227 218.211 196.822 217.976C196.416 217.741 195.979 217.624 195.51 217.624C195.04 217.624 194.603 217.741 194.198 217.976C193.792 218.2 193.462 218.536 193.206 218.984C192.96 219.421 192.838 219.944 192.838 220.552C192.838 221.16 192.96 221.693 193.206 222.152C193.462 222.611 193.792 222.963 194.198 223.208C194.614 223.443 195.051 223.56 195.51 223.56C195.979 223.56 196.416 223.443 196.822 223.208C197.227 222.973 197.552 222.632 197.798 222.184C198.054 221.725 198.182 221.192 198.182 220.584ZM206.546 216.04C207.239 216.04 207.858 216.184 208.402 216.472C208.956 216.76 209.388 217.187 209.698 217.752C210.007 218.317 210.162 219 210.162 219.8V225H208.354V220.072C208.354 219.283 208.156 218.68 207.762 218.264C207.367 217.837 206.828 217.624 206.146 217.624C205.463 217.624 204.919 217.837 204.514 218.264C204.119 218.68 203.922 219.283 203.922 220.072V225H202.098V216.184H203.922V217.192C204.22 216.829 204.599 216.547 205.058 216.344C205.527 216.141 206.023 216.04 206.546 216.04ZM211.56 220.552C211.56 219.667 211.741 218.883 212.104 218.2C212.477 217.517 212.979 216.989 213.608 216.616C214.248 216.232 214.957 216.04 215.736 216.04C216.312 216.04 216.877 216.168 217.432 216.424C217.997 216.669 218.445 217 218.776 217.416V213.16H220.616V225H218.776V223.672C218.477 224.099 218.061 224.451 217.528 224.728C217.005 225.005 216.403 225.144 215.72 225.144C214.952 225.144 214.248 224.952 213.608 224.568C212.979 224.173 212.477 223.629 212.104 222.936C211.741 222.232 211.56 221.437 211.56 220.552ZM218.776 220.584C218.776 219.976 218.648 219.448 218.392 219C218.147 218.552 217.821 218.211 217.416 217.976C217.011 217.741 216.573 217.624 216.104 217.624C215.635 217.624 215.197 217.741 214.792 217.976C214.387 218.2 214.056 218.536 213.8 218.984C213.555 219.421 213.432 219.944 213.432 220.552C213.432 221.16 213.555 221.693 213.8 222.152C214.056 222.611 214.387 222.963 214.792 223.208C215.208 223.443 215.645 223.56 216.104 223.56C216.573 223.56 217.011 223.443 217.416 223.208C217.821 222.973 218.147 222.632 218.392 222.184C218.648 221.725 218.776 221.192 218.776 220.584ZM228.352 217.464C228.619 217.016 228.971 216.669 229.408 216.424C229.856 216.168 230.384 216.04 230.992 216.04V217.928H230.528C229.813 217.928 229.269 218.109 228.896 218.472C228.533 218.835 228.352 219.464 228.352 220.36V225H226.528V216.184H228.352V217.464ZM240.429 220.376C240.429 220.707 240.407 221.005 240.365 221.272H233.629C233.682 221.976 233.943 222.541 234.413 222.968C234.882 223.395 235.458 223.608 236.141 223.608C237.122 223.608 237.815 223.197 238.221 222.376H240.189C239.922 223.187 239.437 223.853 238.733 224.376C238.039 224.888 237.175 225.144 236.141 225.144C235.298 225.144 234.541 224.957 233.869 224.584C233.207 224.2 232.685 223.667 232.301 222.984C231.927 222.291 231.741 221.491 231.741 220.584C231.741 219.677 231.922 218.883 232.285 218.2C232.658 217.507 233.175 216.973 233.837 216.6C234.509 216.227 235.277 216.04 236.141 216.04C236.973 216.04 237.714 216.221 238.365 216.584C239.015 216.947 239.522 217.459 239.885 218.12C240.247 218.771 240.429 219.523 240.429 220.376ZM238.525 219.8C238.514 219.128 238.274 218.589 237.805 218.184C237.335 217.779 236.754 217.576 236.061 217.576C235.431 217.576 234.893 217.779 234.445 218.184C233.997 218.579 233.73 219.117 233.645 219.8H238.525ZM241.296 220.552C241.296 219.667 241.477 218.883 241.84 218.2C242.213 217.517 242.714 216.989 243.344 216.616C243.984 216.232 244.693 216.04 245.472 216.04C246.048 216.04 246.613 216.168 247.168 216.424C247.733 216.669 248.181 217 248.512 217.416V213.16H250.352V225H248.512V223.672C248.213 224.099 247.797 224.451 247.264 224.728C246.741 225.005 246.138 225.144 245.456 225.144C244.688 225.144 243.984 224.952 243.344 224.568C242.714 224.173 242.213 223.629 241.84 222.936C241.477 222.232 241.296 221.437 241.296 220.552ZM248.512 220.584C248.512 219.976 248.384 219.448 248.128 219C247.882 218.552 247.557 218.211 247.152 217.976C246.746 217.741 246.309 217.624 245.84 217.624C245.37 217.624 244.933 217.741 244.528 217.976C244.122 218.2 243.792 218.536 243.536 218.984C243.29 219.421 243.168 219.944 243.168 220.552C243.168 221.16 243.29 221.693 243.536 222.152C243.792 222.611 244.122 222.963 244.528 223.208C244.944 223.443 245.381 223.56 245.84 223.56C246.309 223.56 246.746 223.443 247.152 223.208C247.557 222.973 247.882 222.632 248.128 222.184C248.384 221.725 248.512 221.192 248.512 220.584ZM260.411 216.184V225H258.587V223.96C258.299 224.323 257.921 224.611 257.451 224.824C256.993 225.027 256.502 225.128 255.979 225.128C255.286 225.128 254.662 224.984 254.107 224.696C253.563 224.408 253.131 223.981 252.811 223.416C252.502 222.851 252.347 222.168 252.347 221.368V216.184H254.155V221.096C254.155 221.885 254.353 222.493 254.747 222.92C255.142 223.336 255.681 223.544 256.363 223.544C257.046 223.544 257.585 223.336 257.979 222.92C258.385 222.493 258.587 221.885 258.587 221.096V216.184H260.411ZM261.89 220.584C261.89 219.677 262.071 218.883 262.434 218.2C262.807 217.507 263.319 216.973 263.97 216.6C264.621 216.227 265.367 216.04 266.21 216.04C267.277 216.04 268.157 216.296 268.85 216.808C269.554 217.309 270.029 218.029 270.274 218.968H268.306C268.146 218.531 267.89 218.189 267.538 217.944C267.186 217.699 266.743 217.576 266.21 217.576C265.463 217.576 264.866 217.843 264.418 218.376C263.981 218.899 263.762 219.635 263.762 220.584C263.762 221.533 263.981 222.275 264.418 222.808C264.866 223.341 265.463 223.608 266.21 223.608C267.266 223.608 267.965 223.144 268.306 222.216H270.274C270.018 223.112 269.538 223.827 268.834 224.36C268.13 224.883 267.255 225.144 266.21 225.144C265.367 225.144 264.621 224.957 263.97 224.584C263.319 224.2 262.807 223.667 262.434 222.984C262.071 222.291 261.89 221.491 261.89 220.584ZM279.852 220.376C279.852 220.707 279.831 221.005 279.788 221.272H273.052C273.105 221.976 273.367 222.541 273.836 222.968C274.305 223.395 274.881 223.608 275.564 223.608C276.545 223.608 277.239 223.197 277.644 222.376H279.612C279.345 223.187 278.86 223.853 278.156 224.376C277.463 224.888 276.599 225.144 275.564 225.144C274.721 225.144 273.964 224.957 273.292 224.584C272.631 224.2 272.108 223.667 271.724 222.984C271.351 222.291 271.164 221.491 271.164 220.584C271.164 219.677 271.345 218.883 271.708 218.2C272.081 217.507 272.599 216.973 273.26 216.6C273.932 216.227 274.7 216.04 275.564 216.04C276.396 216.04 277.137 216.221 277.788 216.584C278.439 216.947 278.945 217.459 279.308 218.12C279.671 218.771 279.852 219.523 279.852 220.376ZM277.948 219.8C277.937 219.128 277.697 218.589 277.228 218.184C276.759 217.779 276.177 217.576 275.484 217.576C274.855 217.576 274.316 217.779 273.868 218.184C273.42 218.579 273.153 219.117 273.068 219.8H277.948ZM280.719 220.552C280.719 219.667 280.9 218.883 281.263 218.2C281.636 217.517 282.138 216.989 282.767 216.616C283.407 216.232 284.116 216.04 284.895 216.04C285.471 216.04 286.036 216.168 286.591 216.424C287.156 216.669 287.604 217 287.935 217.416V213.16H289.775V225H287.935V223.672C287.636 224.099 287.22 224.451 286.687 224.728C286.164 225.005 285.562 225.144 284.879 225.144C284.111 225.144 283.407 224.952 282.767 224.568C282.138 224.173 281.636 223.629 281.263 222.936C280.9 222.232 280.719 221.437 280.719 220.552ZM287.935 220.584C287.935 219.976 287.807 219.448 287.551 219C287.306 218.552 286.98 218.211 286.575 217.976C286.17 217.741 285.732 217.624 285.263 217.624C284.794 217.624 284.356 217.741 283.951 217.976C283.546 218.2 283.215 218.536 282.959 218.984C282.714 219.421 282.591 219.944 282.591 220.552C282.591 221.16 282.714 221.693 282.959 222.152C283.215 222.611 283.546 222.963 283.951 223.208C284.367 223.443 284.804 223.56 285.263 223.56C285.732 223.56 286.17 223.443 286.575 223.208C286.98 222.973 287.306 222.632 287.551 222.184C287.807 221.725 287.935 221.192 287.935 220.584ZM41.184 238.184V247H39.36V245.96C39.072 246.323 38.6933 246.611 38.224 246.824C37.7653 247.027 37.2747 247.128 36.752 247.128C36.0587 247.128 35.4347 246.984 34.88 246.696C34.336 246.408 33.904 245.981 33.584 245.416C33.2747 244.851 33.12 244.168 33.12 243.368V238.184H34.928V243.096C34.928 243.885 35.1253 244.493 35.52 244.92C35.9147 245.336 36.4533 245.544 37.136 245.544C37.8187 245.544 38.3573 245.336 38.752 244.92C39.1573 244.493 39.36 243.885 39.36 243.096V238.184H41.184ZM45.0946 239.48C45.404 239.075 45.8253 238.733 46.3586 238.456C46.892 238.179 47.4946 238.04 48.1666 238.04C48.9346 238.04 49.6333 238.232 50.2626 238.616C50.9026 238.989 51.404 239.517 51.7666 240.2C52.1293 240.883 52.3106 241.667 52.3106 242.552C52.3106 243.437 52.1293 244.232 51.7666 244.936C51.404 245.629 50.9026 246.173 50.2626 246.568C49.6333 246.952 48.9346 247.144 48.1666 247.144C47.4946 247.144 46.8973 247.011 46.3746 246.744C45.852 246.467 45.4253 246.125 45.0946 245.72V251.192H43.2706V238.184H45.0946V239.48ZM50.4546 242.552C50.4546 241.944 50.3266 241.421 50.0706 240.984C49.8253 240.536 49.4946 240.2 49.0786 239.976C48.6733 239.741 48.236 239.624 47.7666 239.624C47.308 239.624 46.8706 239.741 46.4546 239.976C46.0493 240.211 45.7186 240.552 45.4626 241C45.2173 241.448 45.0946 241.976 45.0946 242.584C45.0946 243.192 45.2173 243.725 45.4626 244.184C45.7186 244.632 46.0493 244.973 46.4546 245.208C46.8706 245.443 47.308 245.56 47.7666 245.56C48.236 245.56 48.6733 245.443 49.0786 245.208C49.4946 244.963 49.8253 244.611 50.0706 244.152C50.3266 243.693 50.4546 243.16 50.4546 242.552ZM57.2824 242.6L61.3464 247H58.8824L55.6184 243.208V247H53.7944V235.16H55.6184V242.04L58.8184 238.184H61.3464L57.2824 242.6ZM70.4138 242.376C70.4138 242.707 70.3924 243.005 70.3498 243.272H63.6138C63.6671 243.976 63.9284 244.541 64.3978 244.968C64.8671 245.395 65.4431 245.608 66.1258 245.608C67.1071 245.608 67.8004 245.197 68.2058 244.376H70.1738C69.9071 245.187 69.4218 245.853 68.7178 246.376C68.0244 246.888 67.1604 247.144 66.1258 247.144C65.2831 247.144 64.5258 246.957 63.8538 246.584C63.1924 246.2 62.6698 245.667 62.2858 244.984C61.9124 244.291 61.7258 243.491 61.7258 242.584C61.7258 241.677 61.9071 240.883 62.2698 240.2C62.6431 239.507 63.1604 238.973 63.8218 238.6C64.4938 238.227 65.2618 238.04 66.1258 238.04C66.9578 238.04 67.6991 238.221 68.3498 238.584C69.0004 238.947 69.5071 239.459 69.8698 240.12C70.2324 240.771 70.4138 241.523 70.4138 242.376ZM68.5098 241.8C68.4991 241.128 68.2591 240.589 67.7898 240.184C67.3204 239.779 66.7391 239.576 66.0458 239.576C65.4164 239.576 64.8778 239.779 64.4298 240.184C63.9818 240.579 63.7151 241.117 63.6298 241.8H68.5098ZM79.9688 242.376C79.9688 242.707 79.9474 243.005 79.9048 243.272H73.1688C73.2221 243.976 73.4834 244.541 73.9528 244.968C74.4221 245.395 74.9981 245.608 75.6808 245.608C76.6621 245.608 77.3554 245.197 77.7608 244.376H79.7288C79.4621 245.187 78.9768 245.853 78.2728 246.376C77.5794 246.888 76.7154 247.144 75.6808 247.144C74.8381 247.144 74.0808 246.957 73.4088 246.584C72.7474 246.2 72.2248 245.667 71.8408 244.984C71.4674 244.291 71.2808 243.491 71.2808 242.584C71.2808 241.677 71.4621 240.883 71.8248 240.2C72.1981 239.507 72.7154 238.973 73.3768 238.6C74.0488 238.227 74.8168 238.04 75.6808 238.04C76.5128 238.04 77.2541 238.221 77.9048 238.584C78.5554 238.947 79.0621 239.459 79.4248 240.12C79.7874 240.771 79.9688 241.523 79.9688 242.376ZM78.0648 241.8C78.0541 241.128 77.8141 240.589 77.3448 240.184C76.8754 239.779 76.2941 239.576 75.6008 239.576C74.9714 239.576 74.4328 239.779 73.9848 240.184C73.5368 240.579 73.2701 241.117 73.1848 241.8H78.0648ZM83.2678 239.48C83.5771 239.075 83.9984 238.733 84.5318 238.456C85.0651 238.179 85.6678 238.04 86.3398 238.04C87.1078 238.04 87.8064 238.232 88.4358 238.616C89.0758 238.989 89.5771 239.517 89.9398 240.2C90.3024 240.883 90.4838 241.667 90.4838 242.552C90.4838 243.437 90.3024 244.232 89.9398 244.936C89.5771 245.629 89.0758 246.173 88.4358 246.568C87.8064 246.952 87.1078 247.144 86.3398 247.144C85.6678 247.144 85.0704 247.011 84.5478 246.744C84.0251 246.467 83.5984 246.125 83.2678 245.72V251.192H81.4438V238.184H83.2678V239.48ZM88.6278 242.552C88.6278 241.944 88.4998 241.421 88.2438 240.984C87.9984 240.536 87.6678 240.2 87.2518 239.976C86.8464 239.741 86.4091 239.624 85.9398 239.624C85.4811 239.624 85.0438 239.741 84.6278 239.976C84.2224 240.211 83.8918 240.552 83.6358 241C83.3904 241.448 83.2678 241.976 83.2678 242.584C83.2678 243.192 83.3904 243.725 83.6358 244.184C83.8918 244.632 84.2224 244.973 84.6278 245.208C85.0438 245.443 85.4811 245.56 85.9398 245.56C86.4091 245.56 86.8464 245.443 87.2518 245.208C87.6678 244.963 87.9984 244.611 88.2438 244.152C88.4998 243.693 88.6278 243.16 88.6278 242.552ZM93.9675 244.808L92.0315 249.224H90.8475L91.9835 244.808H93.9675ZM108.214 247H106.39L100.902 238.696V247H99.0775V235.864H100.902L106.39 244.152V235.864H108.214V247ZM114.113 247.144C113.281 247.144 112.529 246.957 111.857 246.584C111.185 246.2 110.657 245.667 110.273 244.984C109.889 244.291 109.697 243.491 109.697 242.584C109.697 241.688 109.894 240.893 110.289 240.2C110.683 239.507 111.222 238.973 111.905 238.6C112.587 238.227 113.35 238.04 114.193 238.04C115.035 238.04 115.798 238.227 116.481 238.6C117.163 238.973 117.702 239.507 118.097 240.2C118.491 240.893 118.689 241.688 118.689 242.584C118.689 243.48 118.486 244.275 118.081 244.968C117.675 245.661 117.121 246.2 116.417 246.584C115.723 246.957 114.955 247.144 114.113 247.144ZM114.113 245.56C114.582 245.56 115.019 245.448 115.425 245.224C115.841 245 116.177 244.664 116.433 244.216C116.689 243.768 116.817 243.224 116.817 242.584C116.817 241.944 116.694 241.405 116.449 240.968C116.203 240.52 115.878 240.184 115.473 239.96C115.067 239.736 114.63 239.624 114.161 239.624C113.691 239.624 113.254 239.736 112.849 239.96C112.454 240.184 112.139 240.52 111.905 240.968C111.67 241.405 111.553 241.944 111.553 242.584C111.553 243.533 111.793 244.269 112.273 244.792C112.763 245.304 113.377 245.56 114.113 245.56ZM125.948 247L123.388 242.552H121.996V247H120.172V235.88H124.012C124.865 235.88 125.585 236.029 126.172 236.328C126.769 236.627 127.212 237.027 127.5 237.528C127.799 238.029 127.948 238.589 127.948 239.208C127.948 239.933 127.735 240.595 127.308 241.192C126.892 241.779 126.247 242.179 125.372 242.392L128.124 247H125.948ZM121.996 241.096H124.012C124.695 241.096 125.207 240.925 125.548 240.584C125.9 240.243 126.076 239.784 126.076 239.208C126.076 238.632 125.905 238.184 125.564 237.864C125.223 237.533 124.705 237.368 124.012 237.368H121.996V241.096ZM129.353 242.552C129.353 241.667 129.535 240.883 129.897 240.2C130.271 239.517 130.772 238.989 131.401 238.616C132.041 238.232 132.745 238.04 133.513 238.04C134.207 238.04 134.809 238.179 135.321 238.456C135.844 238.723 136.26 239.059 136.569 239.464V238.184H138.409V247H136.569V245.688C136.26 246.104 135.839 246.451 135.305 246.728C134.772 247.005 134.164 247.144 133.481 247.144C132.724 247.144 132.031 246.952 131.401 246.568C130.772 246.173 130.271 245.629 129.897 244.936C129.535 244.232 129.353 243.437 129.353 242.552ZM136.569 242.584C136.569 241.976 136.441 241.448 136.185 241C135.94 240.552 135.615 240.211 135.209 239.976C134.804 239.741 134.367 239.624 133.897 239.624C133.428 239.624 132.991 239.741 132.585 239.976C132.18 240.2 131.849 240.536 131.593 240.984C131.348 241.421 131.225 241.944 131.225 242.552C131.225 243.16 131.348 243.693 131.593 244.152C131.849 244.611 132.18 244.963 132.585 245.208C133.001 245.443 133.439 245.56 133.897 245.56C134.367 245.56 134.804 245.443 135.209 245.208C135.615 244.973 135.94 244.632 136.185 244.184C136.441 243.725 136.569 243.192 136.569 242.584ZM146.145 237.352V240.616H149.985V242.104H146.145V245.512H150.465V247H144.321V235.864H150.465V237.352H146.145ZM161.976 235.88L157.8 247H155.688L151.496 235.88H153.448L156.744 245.128L160.056 235.88H161.976ZM170.506 242.6L174.57 247H172.106L168.842 243.208V247H167.018V235.16H168.842V242.04L172.042 238.184H174.57L170.506 242.6ZM183.637 242.376C183.637 242.707 183.616 243.005 183.573 243.272H176.837C176.89 243.976 177.152 244.541 177.621 244.968C178.09 245.395 178.666 245.608 179.349 245.608C180.33 245.608 181.024 245.197 181.429 244.376H183.397C183.13 245.187 182.645 245.853 181.941 246.376C181.248 246.888 180.384 247.144 179.349 247.144C178.506 247.144 177.749 246.957 177.077 246.584C176.416 246.2 175.893 245.667 175.509 244.984C175.136 244.291 174.949 243.491 174.949 242.584C174.949 241.677 175.13 240.883 175.493 240.2C175.866 239.507 176.384 238.973 177.045 238.6C177.717 238.227 178.485 238.04 179.349 238.04C180.181 238.04 180.922 238.221 181.573 238.584C182.224 238.947 182.73 239.459 183.093 240.12C183.456 240.771 183.637 241.523 183.637 242.376ZM181.733 241.8C181.722 241.128 181.482 240.589 181.013 240.184C180.544 239.779 179.962 239.576 179.269 239.576C178.64 239.576 178.101 239.779 177.653 240.184C177.205 240.579 176.938 241.117 176.853 241.8H181.733ZM193.192 242.376C193.192 242.707 193.171 243.005 193.128 243.272H186.392C186.445 243.976 186.707 244.541 187.176 244.968C187.645 245.395 188.221 245.608 188.904 245.608C189.885 245.608 190.579 245.197 190.984 244.376H192.952C192.685 245.187 192.2 245.853 191.496 246.376C190.803 246.888 189.939 247.144 188.904 247.144C188.061 247.144 187.304 246.957 186.632 246.584C185.971 246.2 185.448 245.667 185.064 244.984C184.691 244.291 184.504 243.491 184.504 242.584C184.504 241.677 184.685 240.883 185.048 240.2C185.421 239.507 185.939 238.973 186.6 238.6C187.272 238.227 188.04 238.04 188.904 238.04C189.736 238.04 190.477 238.221 191.128 238.584C191.779 238.947 192.285 239.459 192.648 240.12C193.011 240.771 193.192 241.523 193.192 242.376ZM191.288 241.8C191.277 241.128 191.037 240.589 190.568 240.184C190.099 239.779 189.517 239.576 188.824 239.576C188.195 239.576 187.656 239.779 187.208 240.184C186.76 240.579 186.493 241.117 186.408 241.8H191.288ZM196.491 239.48C196.8 239.075 197.222 238.733 197.755 238.456C198.288 238.179 198.891 238.04 199.563 238.04C200.331 238.04 201.03 238.232 201.659 238.616C202.299 238.989 202.8 239.517 203.163 240.2C203.526 240.883 203.707 241.667 203.707 242.552C203.707 243.437 203.526 244.232 203.163 244.936C202.8 245.629 202.299 246.173 201.659 246.568C201.03 246.952 200.331 247.144 199.563 247.144C198.891 247.144 198.294 247.011 197.771 246.744C197.248 246.467 196.822 246.125 196.491 245.72V251.192H194.667V238.184H196.491V239.48ZM201.851 242.552C201.851 241.944 201.723 241.421 201.467 240.984C201.222 240.536 200.891 240.2 200.475 239.976C200.07 239.741 199.632 239.624 199.163 239.624C198.704 239.624 198.267 239.741 197.851 239.976C197.446 240.211 197.115 240.552 196.859 241C196.614 241.448 196.491 241.976 196.491 242.584C196.491 243.192 196.614 243.725 196.859 244.184C197.115 244.632 197.446 244.973 197.851 245.208C198.267 245.443 198.704 245.56 199.163 245.56C199.632 245.56 200.07 245.443 200.475 245.208C200.891 244.963 201.222 244.611 201.467 244.152C201.723 243.693 201.851 243.16 201.851 242.552ZM208.391 247.144C207.697 247.144 207.073 247.021 206.519 246.776C205.975 246.52 205.543 246.179 205.223 245.752C204.903 245.315 204.732 244.829 204.711 244.296H206.599C206.631 244.669 206.807 244.984 207.127 245.24C207.457 245.485 207.868 245.608 208.359 245.608C208.871 245.608 209.265 245.512 209.543 245.32C209.831 245.117 209.975 244.861 209.975 244.552C209.975 244.221 209.815 243.976 209.495 243.816C209.185 243.656 208.689 243.48 208.007 243.288C207.345 243.107 206.807 242.931 206.391 242.76C205.975 242.589 205.612 242.328 205.303 241.976C205.004 241.624 204.855 241.16 204.855 240.584C204.855 240.115 204.993 239.688 205.271 239.304C205.548 238.909 205.943 238.6 206.455 238.376C206.977 238.152 207.575 238.04 208.247 238.04C209.249 238.04 210.055 238.296 210.663 238.808C211.281 239.309 211.612 239.997 211.655 240.872H209.831C209.799 240.477 209.639 240.163 209.351 239.928C209.063 239.693 208.673 239.576 208.183 239.576C207.703 239.576 207.335 239.667 207.079 239.848C206.823 240.029 206.695 240.269 206.695 240.568C206.695 240.803 206.78 241 206.951 241.16C207.121 241.32 207.329 241.448 207.575 241.544C207.82 241.629 208.183 241.741 208.663 241.88C209.303 242.051 209.825 242.227 210.231 242.408C210.647 242.579 211.004 242.835 211.303 243.176C211.601 243.517 211.756 243.971 211.767 244.536C211.767 245.037 211.628 245.485 211.351 245.88C211.073 246.275 210.679 246.584 210.167 246.808C209.665 247.032 209.073 247.144 208.391 247.144ZM225.19 238.184L219.782 251.144H217.894L219.686 246.856L216.214 238.184H218.246L220.726 244.904L223.302 238.184H225.19ZM230.07 247.144C229.238 247.144 228.486 246.957 227.814 246.584C227.142 246.2 226.614 245.667 226.23 244.984C225.846 244.291 225.654 243.491 225.654 242.584C225.654 241.688 225.852 240.893 226.246 240.2C226.641 239.507 227.18 238.973 227.862 238.6C228.545 238.227 229.308 238.04 230.15 238.04C230.993 238.04 231.756 238.227 232.438 238.6C233.121 238.973 233.66 239.507 234.054 240.2C234.449 240.893 234.646 241.688 234.646 242.584C234.646 243.48 234.444 244.275 234.038 244.968C233.633 245.661 233.078 246.2 232.374 246.584C231.681 246.957 230.913 247.144 230.07 247.144ZM230.07 245.56C230.54 245.56 230.977 245.448 231.382 245.224C231.798 245 232.134 244.664 232.39 244.216C232.646 243.768 232.774 243.224 232.774 242.584C232.774 241.944 232.652 241.405 232.406 240.968C232.161 240.52 231.836 240.184 231.43 239.96C231.025 239.736 230.588 239.624 230.118 239.624C229.649 239.624 229.212 239.736 228.806 239.96C228.412 240.184 228.097 240.52 227.862 240.968C227.628 241.405 227.51 241.944 227.51 242.584C227.51 243.533 227.75 244.269 228.23 244.792C228.721 245.304 229.334 245.56 230.07 245.56ZM244.113 238.184V247H242.289V245.96C242.001 246.323 241.623 246.611 241.153 246.824C240.695 247.027 240.204 247.128 239.681 247.128C238.988 247.128 238.364 246.984 237.809 246.696C237.265 246.408 236.833 245.981 236.513 245.416C236.204 244.851 236.049 244.168 236.049 243.368V238.184H237.857V243.096C237.857 243.885 238.055 244.493 238.449 244.92C238.844 245.336 239.383 245.544 240.065 245.544C240.748 245.544 241.287 245.336 241.681 244.92C242.087 244.493 242.289 243.885 242.289 243.096V238.184H244.113ZM248.024 239.464C248.291 239.016 248.643 238.669 249.08 238.424C249.528 238.168 250.056 238.04 250.664 238.04V239.928H250.2C249.485 239.928 248.941 240.109 248.568 240.472C248.205 240.835 248.024 241.464 248.024 242.36V247H246.2V238.184H248.024V239.464ZM35.024 261.464C35.2907 261.016 35.6427 260.669 36.08 260.424C36.528 260.168 37.056 260.04 37.664 260.04V261.928H37.2C36.4853 261.928 35.9413 262.109 35.568 262.472C35.2053 262.835 35.024 263.464 35.024 264.36V269H33.2V260.184H35.024V261.464ZM47.0046 260.184V269H45.1806V267.96C44.8926 268.323 44.514 268.611 44.0446 268.824C43.586 269.027 43.0953 269.128 42.5726 269.128C41.8793 269.128 41.2553 268.984 40.7006 268.696C40.1566 268.408 39.7246 267.981 39.4046 267.416C39.0953 266.851 38.9406 266.168 38.9406 265.368V260.184H40.7486V265.096C40.7486 265.885 40.946 266.493 41.3406 266.92C41.7353 267.336 42.274 267.544 42.9566 267.544C43.6393 267.544 44.178 267.336 44.5726 266.92C44.978 266.493 45.1806 265.885 45.1806 265.096V260.184H47.0046ZM53.5392 260.04C54.2326 260.04 54.8512 260.184 55.3952 260.472C55.9499 260.76 56.3819 261.187 56.6912 261.752C57.0006 262.317 57.1553 263 57.1553 263.8V269H55.3472V264.072C55.3472 263.283 55.1499 262.68 54.7552 262.264C54.3606 261.837 53.8219 261.624 53.1392 261.624C52.4566 261.624 51.9126 261.837 51.5072 262.264C51.1126 262.68 50.9152 263.283 50.9152 264.072V269H49.0912V260.184H50.9152V261.192C51.2139 260.829 51.5926 260.547 52.0512 260.344C52.5206 260.141 53.0166 260.04 53.5392 260.04ZM63.6099 260.04C64.3032 260.04 64.9219 260.184 65.4659 260.472C66.0205 260.76 66.4525 261.187 66.7619 261.752C67.0712 262.317 67.2259 263 67.2259 263.8V269H65.4179V264.072C65.4179 263.283 65.2205 262.68 64.8259 262.264C64.4312 261.837 63.8925 261.624 63.2099 261.624C62.5272 261.624 61.9832 261.837 61.5779 262.264C61.1832 262.68 60.9859 263.283 60.9859 264.072V269H59.1619V260.184H60.9859V261.192C61.2845 260.829 61.6632 260.547 62.1219 260.344C62.5912 260.141 63.0872 260.04 63.6099 260.04ZM70.1605 259.016C69.8298 259.016 69.5525 258.904 69.3285 258.68C69.1045 258.456 68.9925 258.179 68.9925 257.848C68.9925 257.517 69.1045 257.24 69.3285 257.016C69.5525 256.792 69.8298 256.68 70.1605 256.68C70.4805 256.68 70.7525 256.792 70.9765 257.016C71.2005 257.24 71.3125 257.517 71.3125 257.848C71.3125 258.179 71.2005 258.456 70.9765 258.68C70.7525 258.904 70.4805 259.016 70.1605 259.016ZM71.0565 260.184V269H69.2325V260.184H71.0565ZM77.5793 260.04C78.2726 260.04 78.8913 260.184 79.4353 260.472C79.9899 260.76 80.4219 261.187 80.7313 261.752C81.0406 262.317 81.1953 263 81.1953 263.8V269H79.3873V264.072C79.3873 263.283 79.1899 262.68 78.7953 262.264C78.4006 261.837 77.8619 261.624 77.1793 261.624C76.4966 261.624 75.9526 261.837 75.5473 262.264C75.1526 262.68 74.9553 263.283 74.9553 264.072V269H73.1313V260.184H74.9553V261.192C75.2539 260.829 75.6326 260.547 76.0913 260.344C76.5606 260.141 77.0566 260.04 77.5793 260.04ZM86.7539 260.04C87.4365 260.04 88.0392 260.179 88.5619 260.456C89.0952 260.723 89.5112 261.059 89.8099 261.464V260.184H91.6499V269.144C91.6499 269.955 91.4792 270.675 91.1379 271.304C90.7965 271.944 90.3005 272.445 89.6499 272.808C89.0099 273.171 88.2419 273.352 87.3459 273.352C86.1512 273.352 85.1592 273.069 84.3699 272.504C83.5805 271.949 83.1325 271.192 83.0259 270.232H84.8339C84.9725 270.691 85.2659 271.059 85.7139 271.336C86.1725 271.624 86.7165 271.768 87.3459 271.768C88.0819 271.768 88.6739 271.544 89.1219 271.096C89.5805 270.648 89.8099 269.997 89.8099 269.144V267.672C89.5005 268.088 89.0792 268.44 88.5459 268.728C88.0232 269.005 87.4259 269.144 86.7539 269.144C85.9859 269.144 85.2819 268.952 84.6419 268.568C84.0125 268.173 83.5112 267.629 83.1379 266.936C82.7752 266.232 82.5939 265.437 82.5939 264.552C82.5939 263.667 82.7752 262.883 83.1379 262.2C83.5112 261.517 84.0125 260.989 84.6419 260.616C85.2819 260.232 85.9859 260.04 86.7539 260.04ZM89.8099 264.584C89.8099 263.976 89.6819 263.448 89.4259 263C89.1805 262.552 88.8552 262.211 88.4499 261.976C88.0445 261.741 87.6072 261.624 87.1379 261.624C86.6685 261.624 86.2312 261.741 85.8259 261.976C85.4205 262.2 85.0899 262.536 84.8339 262.984C84.5885 263.421 84.4659 263.944 84.4659 264.552C84.4659 265.16 84.5885 265.693 84.8339 266.152C85.0899 266.611 85.4205 266.963 85.8259 267.208C86.2419 267.443 86.6792 267.56 87.1379 267.56C87.6072 267.56 88.0445 267.443 88.4499 267.208C88.8552 266.973 89.1805 266.632 89.4259 266.184C89.6819 265.725 89.8099 265.192 89.8099 264.584ZM96.9539 264.584C96.9539 263.677 97.1352 262.883 97.4979 262.2C97.8712 261.507 98.3832 260.973 99.0339 260.6C99.6845 260.227 100.431 260.04 101.274 260.04C102.341 260.04 103.221 260.296 103.914 260.808C104.618 261.309 105.093 262.029 105.338 262.968H103.37C103.21 262.531 102.954 262.189 102.602 261.944C102.25 261.699 101.807 261.576 101.274 261.576C100.527 261.576 99.9299 261.843 99.4819 262.376C99.0445 262.899 98.8259 263.635 98.8259 264.584C98.8259 265.533 99.0445 266.275 99.4819 266.808C99.9299 267.341 100.527 267.608 101.274 267.608C102.33 267.608 103.029 267.144 103.37 266.216H105.338C105.082 267.112 104.602 267.827 103.898 268.36C103.194 268.883 102.319 269.144 101.274 269.144C100.431 269.144 99.6845 268.957 99.0339 268.584C98.3832 268.2 97.8712 267.667 97.4979 266.984C97.1352 266.291 96.9539 265.491 96.9539 264.584ZM110.66 269.144C109.828 269.144 109.076 268.957 108.404 268.584C107.732 268.2 107.204 267.667 106.82 266.984C106.436 266.291 106.244 265.491 106.244 264.584C106.244 263.688 106.441 262.893 106.836 262.2C107.23 261.507 107.769 260.973 108.452 260.6C109.134 260.227 109.897 260.04 110.74 260.04C111.582 260.04 112.345 260.227 113.028 260.6C113.71 260.973 114.249 261.507 114.644 262.2C115.038 262.893 115.236 263.688 115.236 264.584C115.236 265.48 115.033 266.275 114.628 266.968C114.222 267.661 113.668 268.2 112.964 268.584C112.27 268.957 111.502 269.144 110.66 269.144ZM110.66 267.56C111.129 267.56 111.566 267.448 111.972 267.224C112.388 267 112.724 266.664 112.98 266.216C113.236 265.768 113.364 265.224 113.364 264.584C113.364 263.944 113.241 263.405 112.996 262.968C112.75 262.52 112.425 262.184 112.02 261.96C111.614 261.736 111.177 261.624 110.708 261.624C110.238 261.624 109.801 261.736 109.396 261.96C109.001 262.184 108.686 262.52 108.452 262.968C108.217 263.405 108.1 263.944 108.1 264.584C108.1 265.533 108.34 266.269 108.82 266.792C109.31 267.304 109.924 267.56 110.66 267.56ZM119.919 269.144C119.225 269.144 118.601 269.021 118.047 268.776C117.503 268.52 117.071 268.179 116.751 267.752C116.431 267.315 116.26 266.829 116.239 266.296H118.127C118.159 266.669 118.335 266.984 118.655 267.24C118.985 267.485 119.396 267.608 119.887 267.608C120.399 267.608 120.793 267.512 121.071 267.32C121.359 267.117 121.503 266.861 121.503 266.552C121.503 266.221 121.343 265.976 121.023 265.816C120.713 265.656 120.217 265.48 119.535 265.288C118.873 265.107 118.335 264.931 117.919 264.76C117.503 264.589 117.14 264.328 116.831 263.976C116.532 263.624 116.383 263.16 116.383 262.584C116.383 262.115 116.521 261.688 116.799 261.304C117.076 260.909 117.471 260.6 117.983 260.376C118.505 260.152 119.103 260.04 119.775 260.04C120.777 260.04 121.583 260.296 122.191 260.808C122.809 261.309 123.14 261.997 123.183 262.872H121.359C121.327 262.477 121.167 262.163 120.879 261.928C120.591 261.693 120.201 261.576 119.711 261.576C119.231 261.576 118.863 261.667 118.607 261.848C118.351 262.029 118.223 262.269 118.223 262.568C118.223 262.803 118.308 263 118.479 263.16C118.649 263.32 118.857 263.448 119.103 263.544C119.348 263.629 119.711 263.741 120.191 263.88C120.831 264.051 121.353 264.227 121.759 264.408C122.175 264.579 122.532 264.835 122.831 265.176C123.129 265.517 123.284 265.971 123.295 266.536C123.295 267.037 123.156 267.485 122.879 267.88C122.601 268.275 122.207 268.584 121.695 268.808C121.193 269.032 120.601 269.144 119.919 269.144ZM127.074 261.672V266.552C127.074 266.883 127.148 267.123 127.298 267.272C127.458 267.411 127.724 267.48 128.098 267.48H129.218V269H127.778C126.956 269 126.327 268.808 125.89 268.424C125.452 268.04 125.234 267.416 125.234 266.552V261.672H124.194V260.184H125.234V257.992H127.074V260.184H129.218V261.672H127.074ZM133.779 269.144C133.085 269.144 132.461 269.021 131.907 268.776C131.363 268.52 130.931 268.179 130.611 267.752C130.291 267.315 130.12 266.829 130.099 266.296H131.987C132.019 266.669 132.195 266.984 132.515 267.24C132.845 267.485 133.256 267.608 133.747 267.608C134.259 267.608 134.653 267.512 134.931 267.32C135.219 267.117 135.363 266.861 135.363 266.552C135.363 266.221 135.203 265.976 134.883 265.816C134.573 265.656 134.077 265.48 133.395 265.288C132.733 265.107 132.195 264.931 131.779 264.76C131.363 264.589 131 264.328 130.691 263.976C130.392 263.624 130.243 263.16 130.243 262.584C130.243 262.115 130.381 261.688 130.659 261.304C130.936 260.909 131.331 260.6 131.843 260.376C132.365 260.152 132.963 260.04 133.635 260.04C134.637 260.04 135.443 260.296 136.051 260.808C136.669 261.309 137 261.997 137.043 262.872H135.219C135.187 262.477 135.027 262.163 134.739 261.928C134.451 261.693 134.061 261.576 133.571 261.576C133.091 261.576 132.723 261.667 132.467 261.848C132.211 262.029 132.083 262.269 132.083 262.568C132.083 262.803 132.168 263 132.339 263.16C132.509 263.32 132.717 263.448 132.963 263.544C133.208 263.629 133.571 263.741 134.051 263.88C134.691 264.051 135.213 264.227 135.619 264.408C136.035 264.579 136.392 264.835 136.691 265.176C136.989 265.517 137.144 265.971 137.155 266.536C137.155 267.037 137.016 267.485 136.739 267.88C136.461 268.275 136.067 268.584 135.555 268.808C135.053 269.032 134.461 269.144 133.779 269.144ZM144.466 257.16V269H142.642V257.16H144.466ZM147.469 259.016C147.138 259.016 146.861 258.904 146.637 258.68C146.413 258.456 146.301 258.179 146.301 257.848C146.301 257.517 146.413 257.24 146.637 257.016C146.861 256.792 147.138 256.68 147.469 256.68C147.789 256.68 148.061 256.792 148.285 257.016C148.509 257.24 148.621 257.517 148.621 257.848C148.621 258.179 148.509 258.456 148.285 258.68C148.061 258.904 147.789 259.016 147.469 259.016ZM148.365 260.184V269H146.541V260.184H148.365ZM153.991 260.04C154.674 260.04 155.277 260.179 155.799 260.456C156.333 260.723 156.749 261.059 157.047 261.464V260.184H158.887V269.144C158.887 269.955 158.717 270.675 158.375 271.304C158.034 271.944 157.538 272.445 156.887 272.808C156.247 273.171 155.479 273.352 154.583 273.352C153.389 273.352 152.397 273.069 151.607 272.504C150.818 271.949 150.37 271.192 150.263 270.232H152.071C152.21 270.691 152.503 271.059 152.951 271.336C153.41 271.624 153.954 271.768 154.583 271.768C155.319 271.768 155.911 271.544 156.359 271.096C156.818 270.648 157.047 269.997 157.047 269.144V267.672C156.738 268.088 156.317 268.44 155.783 268.728C155.261 269.005 154.663 269.144 153.991 269.144C153.223 269.144 152.519 268.952 151.879 268.568C151.25 268.173 150.749 267.629 150.375 266.936C150.013 266.232 149.831 265.437 149.831 264.552C149.831 263.667 150.013 262.883 150.375 262.2C150.749 261.517 151.25 260.989 151.879 260.616C152.519 260.232 153.223 260.04 153.991 260.04ZM157.047 264.584C157.047 263.976 156.919 263.448 156.663 263C156.418 262.552 156.093 262.211 155.687 261.976C155.282 261.741 154.845 261.624 154.375 261.624C153.906 261.624 153.469 261.741 153.063 261.976C152.658 262.2 152.327 262.536 152.071 262.984C151.826 263.421 151.703 263.944 151.703 264.552C151.703 265.16 151.826 265.693 152.071 266.152C152.327 266.611 152.658 266.963 153.063 267.208C153.479 267.443 153.917 267.56 154.375 267.56C154.845 267.56 155.282 267.443 155.687 267.208C156.093 266.973 156.418 266.632 156.663 266.184C156.919 265.725 157.047 265.192 157.047 264.584ZM165.523 260.04C166.195 260.04 166.792 260.184 167.315 260.472C167.848 260.76 168.264 261.187 168.563 261.752C168.872 262.317 169.027 263 169.027 263.8V269H167.219V264.072C167.219 263.283 167.022 262.68 166.627 262.264C166.232 261.837 165.694 261.624 165.011 261.624C164.328 261.624 163.784 261.837 163.379 262.264C162.984 262.68 162.787 263.283 162.787 264.072V269H160.963V257.16H162.787V261.208C163.096 260.835 163.486 260.547 163.955 260.344C164.435 260.141 164.958 260.04 165.523 260.04ZM173.162 261.672V266.552C173.162 266.883 173.236 267.123 173.386 267.272C173.546 267.411 173.812 267.48 174.186 267.48H175.306V269H173.866C173.044 269 172.415 268.808 171.978 268.424C171.54 268.04 171.322 267.416 171.322 266.552V261.672H170.282V260.184H171.322V257.992H173.162V260.184H175.306V261.672H173.162ZM184.747 264.376C184.747 264.707 184.726 265.005 184.683 265.272H177.947C178 265.976 178.262 266.541 178.731 266.968C179.2 267.395 179.776 267.608 180.459 267.608C181.44 267.608 182.134 267.197 182.539 266.376H184.507C184.24 267.187 183.755 267.853 183.051 268.376C182.358 268.888 181.494 269.144 180.459 269.144C179.616 269.144 178.859 268.957 178.187 268.584C177.526 268.2 177.003 267.667 176.619 266.984C176.246 266.291 176.059 265.491 176.059 264.584C176.059 263.677 176.24 262.883 176.603 262.2C176.976 261.507 177.494 260.973 178.155 260.6C178.827 260.227 179.595 260.04 180.459 260.04C181.291 260.04 182.032 260.221 182.683 260.584C183.334 260.947 183.84 261.459 184.203 262.12C184.566 262.771 184.747 263.523 184.747 264.376ZM182.843 263.8C182.832 263.128 182.592 262.589 182.123 262.184C181.654 261.779 181.072 261.576 180.379 261.576C179.75 261.576 179.211 261.779 178.763 262.184C178.315 262.579 178.048 263.117 177.963 263.8H182.843ZM188.046 261.464C188.313 261.016 188.665 260.669 189.102 260.424C189.55 260.168 190.078 260.04 190.686 260.04V261.928H190.222C189.507 261.928 188.963 262.109 188.59 262.472C188.227 262.835 188.046 263.464 188.046 264.36V269H186.222V260.184H188.046V261.464ZM198.007 261.672V266.552C198.007 266.883 198.081 267.123 198.231 267.272C198.391 267.411 198.657 267.48 199.031 267.48H200.151V269H198.711C197.889 269 197.26 268.808 196.823 268.424C196.385 268.04 196.167 267.416 196.167 266.552V261.672H195.127V260.184H196.167V257.992H198.007V260.184H200.151V261.672H198.007ZM206.072 260.04C206.744 260.04 207.341 260.184 207.864 260.472C208.397 260.76 208.813 261.187 209.112 261.752C209.421 262.317 209.576 263 209.576 263.8V269H207.768V264.072C207.768 263.283 207.571 262.68 207.176 262.264C206.781 261.837 206.243 261.624 205.56 261.624C204.877 261.624 204.333 261.837 203.928 262.264C203.533 262.68 203.336 263.283 203.336 264.072V269H201.512V257.16H203.336V261.208C203.645 260.835 204.035 260.547 204.504 260.344C204.984 260.141 205.507 260.04 206.072 260.04ZM210.975 264.552C210.975 263.667 211.156 262.883 211.519 262.2C211.892 261.517 212.393 260.989 213.023 260.616C213.663 260.232 214.367 260.04 215.135 260.04C215.828 260.04 216.431 260.179 216.943 260.456C217.465 260.723 217.881 261.059 218.191 261.464V260.184H220.031V269H218.191V267.688C217.881 268.104 217.46 268.451 216.927 268.728C216.393 269.005 215.785 269.144 215.103 269.144C214.345 269.144 213.652 268.952 213.023 268.568C212.393 268.173 211.892 267.629 211.519 266.936C211.156 266.232 210.975 265.437 210.975 264.552ZM218.191 264.584C218.191 263.976 218.063 263.448 217.807 263C217.561 262.552 217.236 262.211 216.831 261.976C216.425 261.741 215.988 261.624 215.519 261.624C215.049 261.624 214.612 261.741 214.207 261.976C213.801 262.2 213.471 262.536 213.215 262.984C212.969 263.421 212.847 263.944 212.847 264.552C212.847 265.16 212.969 265.693 213.215 266.152C213.471 266.611 213.801 266.963 214.207 267.208C214.623 267.443 215.06 267.56 215.519 267.56C215.988 267.56 216.425 267.443 216.831 267.208C217.236 266.973 217.561 266.632 217.807 266.184C218.063 265.725 218.191 265.192 218.191 264.584ZM226.554 260.04C227.248 260.04 227.866 260.184 228.41 260.472C228.965 260.76 229.397 261.187 229.706 261.752C230.016 262.317 230.17 263 230.17 263.8V269H228.362V264.072C228.362 263.283 228.165 262.68 227.77 262.264C227.376 261.837 226.837 261.624 226.154 261.624C225.472 261.624 224.928 261.837 224.522 262.264C224.128 262.68 223.93 263.283 223.93 264.072V269H222.106V260.184H223.93V261.192C224.229 260.829 224.608 260.547 225.066 260.344C225.536 260.141 226.032 260.04 226.554 260.04ZM235.405 264.552C235.405 263.667 235.586 262.883 235.949 262.2C236.322 261.517 236.824 260.989 237.453 260.616C238.093 260.232 238.797 260.04 239.565 260.04C240.258 260.04 240.861 260.179 241.373 260.456C241.896 260.723 242.312 261.059 242.621 261.464V260.184H244.461V269H242.621V267.688C242.312 268.104 241.89 268.451 241.357 268.728C240.824 269.005 240.216 269.144 239.533 269.144C238.776 269.144 238.082 268.952 237.453 268.568C236.824 268.173 236.322 267.629 235.949 266.936C235.586 266.232 235.405 265.437 235.405 264.552ZM242.621 264.584C242.621 263.976 242.493 263.448 242.237 263C241.992 262.552 241.666 262.211 241.261 261.976C240.856 261.741 240.418 261.624 239.949 261.624C239.48 261.624 239.042 261.741 238.637 261.976C238.232 262.2 237.901 262.536 237.645 262.984C237.4 263.421 237.277 263.944 237.277 264.552C237.277 265.16 237.4 265.693 237.645 266.152C237.901 266.611 238.232 266.963 238.637 267.208C239.053 267.443 239.49 267.56 239.949 267.56C240.418 267.56 240.856 267.443 241.261 267.208C241.666 266.973 241.992 266.632 242.237 266.184C242.493 265.725 242.621 265.192 242.621 264.584ZM250.985 260.04C251.678 260.04 252.297 260.184 252.841 260.472C253.396 260.76 253.828 261.187 254.137 261.752C254.446 262.317 254.601 263 254.601 263.8V269H252.793V264.072C252.793 263.283 252.596 262.68 252.201 262.264C251.806 261.837 251.268 261.624 250.585 261.624C249.902 261.624 249.358 261.837 248.953 262.264C248.558 262.68 248.361 263.283 248.361 264.072V269H246.537V260.184H248.361V261.192C248.66 260.829 249.038 260.547 249.497 260.344C249.966 260.141 250.462 260.04 250.985 260.04ZM264.544 260.184L259.136 273.144H257.248L259.04 268.856L255.568 260.184H257.6L260.08 266.904L262.656 260.184H264.544ZM32.592 286.584C32.592 285.677 32.7733 284.883 33.136 284.2C33.5093 283.507 34.0213 282.973 34.672 282.6C35.3227 282.227 36.0693 282.04 36.912 282.04C37.9787 282.04 38.8587 282.296 39.552 282.808C40.256 283.309 40.7307 284.029 40.976 284.968H39.008C38.848 284.531 38.592 284.189 38.24 283.944C37.888 283.699 37.4453 283.576 36.912 283.576C36.1653 283.576 35.568 283.843 35.12 284.376C34.6827 284.899 34.464 285.635 34.464 286.584C34.464 287.533 34.6827 288.275 35.12 288.808C35.568 289.341 36.1653 289.608 36.912 289.608C37.968 289.608 38.6667 289.144 39.008 288.216H40.976C40.72 289.112 40.24 289.827 39.536 290.36C38.832 290.883 37.9573 291.144 36.912 291.144C36.0693 291.144 35.3227 290.957 34.672 290.584C34.0213 290.2 33.5093 289.667 33.136 288.984C32.7733 288.291 32.592 287.491 32.592 286.584ZM46.2978 291.144C45.4658 291.144 44.7138 290.957 44.0418 290.584C43.3698 290.2 42.8418 289.667 42.4578 288.984C42.0738 288.291 41.8818 287.491 41.8818 286.584C41.8818 285.688 42.0791 284.893 42.4738 284.2C42.8684 283.507 43.4071 282.973 44.0898 282.6C44.7724 282.227 45.5351 282.04 46.3778 282.04C47.2204 282.04 47.9831 282.227 48.6658 282.6C49.3484 282.973 49.8871 283.507 50.2818 284.2C50.6764 284.893 50.8738 285.688 50.8738 286.584C50.8738 287.48 50.6711 288.275 50.2658 288.968C49.8604 289.661 49.3058 290.2 48.6018 290.584C47.9084 290.957 47.1404 291.144 46.2978 291.144ZM46.2978 289.56C46.7671 289.56 47.2044 289.448 47.6098 289.224C48.0258 289 48.3618 288.664 48.6178 288.216C48.8738 287.768 49.0018 287.224 49.0018 286.584C49.0018 285.944 48.8791 285.405 48.6338 284.968C48.3884 284.52 48.0631 284.184 47.6578 283.96C47.2524 283.736 46.8151 283.624 46.3458 283.624C45.8764 283.624 45.4391 283.736 45.0338 283.96C44.6391 284.184 44.3244 284.52 44.0898 284.968C43.8551 285.405 43.7378 285.944 43.7378 286.584C43.7378 287.533 43.9778 288.269 44.4578 288.792C44.9484 289.304 45.5618 289.56 46.2978 289.56ZM56.8049 282.04C57.4982 282.04 58.1169 282.184 58.6609 282.472C59.2155 282.76 59.6475 283.187 59.9569 283.752C60.2662 284.317 60.4209 285 60.4209 285.8V291H58.6129V286.072C58.6129 285.283 58.4155 284.68 58.0209 284.264C57.6262 283.837 57.0875 283.624 56.4049 283.624C55.7222 283.624 55.1782 283.837 54.7729 284.264C54.3782 284.68 54.1809 285.283 54.1809 286.072V291H52.3569V282.184H54.1809V283.192C54.4795 282.829 54.8582 282.547 55.3169 282.344C55.7862 282.141 56.2822 282.04 56.8049 282.04ZM65.8355 289.368L68.3315 282.184H70.2675L66.9075 291H64.7315L61.3875 282.184H63.3395L65.8355 289.368ZM79.4063 286.376C79.4063 286.707 79.3849 287.005 79.3423 287.272H72.6063C72.6596 287.976 72.9209 288.541 73.3903 288.968C73.8596 289.395 74.4356 289.608 75.1183 289.608C76.0996 289.608 76.7929 289.197 77.1983 288.376H79.1663C78.8996 289.187 78.4143 289.853 77.7103 290.376C77.0169 290.888 76.1529 291.144 75.1183 291.144C74.2756 291.144 73.5183 290.957 72.8463 290.584C72.1849 290.2 71.6623 289.667 71.2783 288.984C70.9049 288.291 70.7183 287.491 70.7183 286.584C70.7183 285.677 70.8996 284.883 71.2623 284.2C71.6356 283.507 72.1529 282.973 72.8143 282.6C73.4863 282.227 74.2543 282.04 75.1183 282.04C75.9503 282.04 76.6916 282.221 77.3423 282.584C77.9929 282.947 78.4996 283.459 78.8623 284.12C79.2249 284.771 79.4063 285.523 79.4063 286.376ZM77.5023 285.8C77.4916 285.128 77.2516 284.589 76.7823 284.184C76.3129 283.779 75.7316 283.576 75.0383 283.576C74.4089 283.576 73.8703 283.779 73.4223 284.184C72.9743 284.579 72.7076 285.117 72.6223 285.8H77.5023ZM85.3293 282.04C86.0226 282.04 86.6413 282.184 87.1853 282.472C87.7399 282.76 88.1719 283.187 88.4813 283.752C88.7906 284.317 88.9453 285 88.9453 285.8V291H87.1373V286.072C87.1373 285.283 86.9399 284.68 86.5453 284.264C86.1506 283.837 85.6119 283.624 84.9293 283.624C84.2466 283.624 83.7026 283.837 83.2973 284.264C82.9026 284.68 82.7053 285.283 82.7053 286.072V291H80.8813V282.184H82.7053V283.192C83.0039 282.829 83.3826 282.547 83.8413 282.344C84.3106 282.141 84.8066 282.04 85.3293 282.04ZM93.0799 283.672V288.552C93.0799 288.883 93.1545 289.123 93.3039 289.272C93.4639 289.411 93.7305 289.48 94.1039 289.48H95.2239V291H93.7839C92.9625 291 92.3332 290.808 91.8959 290.424C91.4585 290.04 91.2399 289.416 91.2399 288.552V283.672H90.1999V282.184H91.2399V279.992H93.0799V282.184H95.2239V283.672H93.0799ZM97.513 281.016C97.1823 281.016 96.905 280.904 96.681 280.68C96.457 280.456 96.345 280.179 96.345 279.848C96.345 279.517 96.457 279.24 96.681 279.016C96.905 278.792 97.1823 278.68 97.513 278.68C97.833 278.68 98.105 278.792 98.329 279.016C98.553 279.24 98.665 279.517 98.665 279.848C98.665 280.179 98.553 280.456 98.329 280.68C98.105 280.904 97.833 281.016 97.513 281.016ZM98.409 282.184V291H96.585V282.184H98.409ZM104.308 291.144C103.476 291.144 102.724 290.957 102.052 290.584C101.38 290.2 100.852 289.667 100.468 288.984C100.084 288.291 99.8918 287.491 99.8918 286.584C99.8918 285.688 100.089 284.893 100.484 284.2C100.878 283.507 101.417 282.973 102.1 282.6C102.782 282.227 103.545 282.04 104.388 282.04C105.23 282.04 105.993 282.227 106.676 282.6C107.358 282.973 107.897 283.507 108.292 284.2C108.686 284.893 108.884 285.688 108.884 286.584C108.884 287.48 108.681 288.275 108.276 288.968C107.87 289.661 107.316 290.2 106.612 290.584C105.918 290.957 105.15 291.144 104.308 291.144ZM104.308 289.56C104.777 289.56 105.214 289.448 105.62 289.224C106.036 289 106.372 288.664 106.628 288.216C106.884 287.768 107.012 287.224 107.012 286.584C107.012 285.944 106.889 285.405 106.644 284.968C106.398 284.52 106.073 284.184 105.668 283.96C105.262 283.736 104.825 283.624 104.356 283.624C103.886 283.624 103.449 283.736 103.044 283.96C102.649 284.184 102.334 284.52 102.1 284.968C101.865 285.405 101.748 285.944 101.748 286.584C101.748 287.533 101.988 288.269 102.468 288.792C102.958 289.304 103.572 289.56 104.308 289.56ZM114.815 282.04C115.508 282.04 116.127 282.184 116.671 282.472C117.226 282.76 117.658 283.187 117.967 283.752C118.276 284.317 118.431 285 118.431 285.8V291H116.623V286.072C116.623 285.283 116.426 284.68 116.031 284.264C115.636 283.837 115.098 283.624 114.415 283.624C113.732 283.624 113.188 283.837 112.783 284.264C112.388 284.68 112.191 285.283 112.191 286.072V291H110.367V282.184H112.191V283.192C112.49 282.829 112.868 282.547 113.327 282.344C113.796 282.141 114.292 282.04 114.815 282.04ZM119.83 286.552C119.83 285.667 120.011 284.883 120.374 284.2C120.747 283.517 121.248 282.989 121.878 282.616C122.518 282.232 123.222 282.04 123.99 282.04C124.683 282.04 125.286 282.179 125.798 282.456C126.32 282.723 126.736 283.059 127.046 283.464V282.184H128.886V291H127.046V289.688C126.736 290.104 126.315 290.451 125.782 290.728C125.248 291.005 124.64 291.144 123.958 291.144C123.2 291.144 122.507 290.952 121.878 290.568C121.248 290.173 120.747 289.629 120.374 288.936C120.011 288.232 119.83 287.437 119.83 286.552ZM127.046 286.584C127.046 285.976 126.918 285.448 126.662 285C126.416 284.552 126.091 284.211 125.686 283.976C125.28 283.741 124.843 283.624 124.374 283.624C123.904 283.624 123.467 283.741 123.062 283.976C122.656 284.2 122.326 284.536 122.07 284.984C121.824 285.421 121.702 285.944 121.702 286.552C121.702 287.16 121.824 287.693 122.07 288.152C122.326 288.611 122.656 288.963 123.062 289.208C123.478 289.443 123.915 289.56 124.374 289.56C124.843 289.56 125.28 289.443 125.686 289.208C126.091 288.973 126.416 288.632 126.662 288.184C126.918 287.725 127.046 287.192 127.046 286.584ZM132.785 279.16V291H130.961V279.16H132.785ZM138.088 286.584C138.088 285.677 138.27 284.883 138.632 284.2C139.006 283.507 139.518 282.973 140.168 282.6C140.819 282.227 141.566 282.04 142.408 282.04C143.475 282.04 144.355 282.296 145.048 282.808C145.752 283.309 146.227 284.029 146.472 284.968H144.504C144.344 284.531 144.088 284.189 143.736 283.944C143.384 283.699 142.942 283.576 142.408 283.576C141.662 283.576 141.064 283.843 140.616 284.376C140.179 284.899 139.96 285.635 139.96 286.584C139.96 287.533 140.179 288.275 140.616 288.808C141.064 289.341 141.662 289.608 142.408 289.608C143.464 289.608 144.163 289.144 144.504 288.216H146.472C146.216 289.112 145.736 289.827 145.032 290.36C144.328 290.883 143.454 291.144 142.408 291.144C141.566 291.144 140.819 290.957 140.168 290.584C139.518 290.2 139.006 289.667 138.632 288.984C138.27 288.291 138.088 287.491 138.088 286.584ZM147.362 286.552C147.362 285.667 147.543 284.883 147.906 284.2C148.279 283.517 148.781 282.989 149.41 282.616C150.05 282.232 150.754 282.04 151.522 282.04C152.215 282.04 152.818 282.179 153.33 282.456C153.853 282.723 154.269 283.059 154.578 283.464V282.184H156.418V291H154.578V289.688C154.269 290.104 153.847 290.451 153.314 290.728C152.781 291.005 152.173 291.144 151.49 291.144C150.733 291.144 150.039 290.952 149.41 290.568C148.781 290.173 148.279 289.629 147.906 288.936C147.543 288.232 147.362 287.437 147.362 286.552ZM154.578 286.584C154.578 285.976 154.45 285.448 154.194 285C153.949 284.552 153.623 284.211 153.218 283.976C152.813 283.741 152.375 283.624 151.906 283.624C151.437 283.624 150.999 283.741 150.594 283.976C150.189 284.2 149.858 284.536 149.602 284.984C149.357 285.421 149.234 285.944 149.234 286.552C149.234 287.16 149.357 287.693 149.602 288.152C149.858 288.611 150.189 288.963 150.594 289.208C151.01 289.443 151.447 289.56 151.906 289.56C152.375 289.56 152.813 289.443 153.218 289.208C153.623 288.973 153.949 288.632 154.194 288.184C154.45 287.725 154.578 287.192 154.578 286.584ZM160.318 283.464C160.584 283.016 160.936 282.669 161.374 282.424C161.822 282.168 162.35 282.04 162.958 282.04V283.928H162.494C161.779 283.928 161.235 284.109 160.862 284.472C160.499 284.835 160.318 285.464 160.318 286.36V291H158.494V282.184H160.318V283.464ZM165.05 291.112C164.72 291.112 164.442 291 164.218 290.776C163.994 290.552 163.882 290.275 163.882 289.944C163.882 289.613 163.994 289.336 164.218 289.112C164.442 288.888 164.72 288.776 165.05 288.776C165.37 288.776 165.642 288.888 165.866 289.112C166.09 289.336 166.202 289.613 166.202 289.944C166.202 290.275 166.09 290.552 165.866 290.776C165.642 291 165.37 291.112 165.05 291.112Z" fill="#D8D8D8"/>
</svg>
