<svg width="33" height="32" viewBox="0 0 33 32" fill="none" xmlns="http://www.w3.org/2000/svg">
<path fill-rule="evenodd" clip-rule="evenodd" d="M8.74226 13.7776C7.43858 13.7776 7.1665 14.0334 7.1665 15.2591V17.4813C7.1665 18.707 7.43858 18.9628 8.74226 18.9628H11.8938V27.8517C11.8938 29.0774 12.1659 29.3332 13.4695 29.3332H16.621C17.9247 29.3332 18.1968 29.0774 18.1968 27.8517V18.9628H21.7355C22.7242 18.9628 22.979 18.7821 23.2506 17.8883L23.9259 15.6661C24.3912 14.135 24.1045 13.7776 22.4108 13.7776H18.1968V10.0739C18.1968 9.25571 18.9023 8.59243 19.7726 8.59243H24.2574C25.5611 8.59243 25.8332 8.33663 25.8332 7.11095V4.14799C25.8332 2.92231 25.5611 2.6665 24.2574 2.6665H19.7726C15.4212 2.6665 11.8938 5.98291 11.8938 10.0739V13.7776H8.74226Z" stroke="white" stroke-width="1.5" stroke-linejoin="round"/>
</svg>
