<svg width="217" height="49" viewBox="0 0 217 49" fill="none" xmlns="http://www.w3.org/2000/svg">
<g clip-path="url(#clip0_182_15002)">
<path d="M27.8373 -0.0347635C27.9321 -0.0345252 28.0269 -0.0342868 28.1246 -0.0340412C33.7338 -0.0115236 39.1973 1.67191 43.8023 4.86662C43.8255 4.77351 43.8486 4.68041 43.8725 4.58448C44.2472 3.09015 44.6396 1.6004 45.0314 0.110411C45.5919 0.110411 45.6695 0.239747 46.065 0.615067C46.1752 0.718419 46.2855 0.821684 46.3959 0.92486C46.4987 1.0211 46.6016 1.11735 46.7075 1.21651C46.8511 1.33716 46.9954 1.45709 47.1405 1.57599C52.2016 5.96347 55.1014 12.8806 55.6214 19.4027C56.0573 26.2091 54.1434 33.0126 49.8363 38.3813C49.7602 38.4778 49.6841 38.5743 49.6058 38.6738C45.092 44.2836 38.4543 47.9613 31.2585 48.8494C24.4019 49.5012 17.6461 48.06 11.9562 44.133C11.6182 45.1882 11.319 46.2497 11.0344 47.3199C10.9934 47.4732 10.9523 47.6266 10.9113 47.7799C10.8123 48.1496 10.7137 48.5193 10.6153 48.8892C9.6732 48.8892 8.60848 47.48 7.97548 46.8567C7.24346 46.1276 6.545 45.3993 5.92225 44.5754C5.82727 44.454 5.73226 44.3326 5.63722 44.2112C1.22054 38.4919 -0.726459 31.1221 0.179014 23.9881C0.77228 19.7475 2.23677 15.4323 4.80484 11.9456C4.85333 11.8792 4.90182 11.8127 4.95177 11.7442C6.52143 9.59987 8.26782 7.59824 10.3919 5.97271C10.4961 5.88845 10.6004 5.80418 10.7079 5.71736C12.2504 4.49385 13.9669 3.46947 15.7587 2.64552C15.9851 2.54096 16.2095 2.43291 16.4341 2.32476C18.3116 1.44025 20.314 0.864949 22.3481 0.456066C22.4532 0.434937 22.5583 0.413808 22.6665 0.392039C24.383 0.0697005 26.093 -0.0427359 27.8373 -0.0347635ZM43.0201 7.18942C42.9809 7.24208 42.9417 7.29473 42.9013 7.34899C42.287 8.17419 41.6728 8.9994 41.0585 9.8246C40.963 9.9529 40.963 9.9529 40.8656 10.0838C40.7367 10.2569 40.6078 10.4301 40.4789 10.6032C40.1498 11.0452 39.8209 11.4873 39.4924 11.9296C38.83 12.8211 38.1648 13.7102 37.4927 14.5946C36.7955 15.5132 36.1092 16.4397 35.4217 17.3655C34.9642 17.9816 34.5063 18.5974 34.0472 19.2123C33.9198 19.3833 33.7927 19.5544 33.6657 19.7257C33.4834 19.9718 33.3004 20.2172 33.1171 20.4626C33.0629 20.5361 33.0087 20.6096 32.9529 20.6854C32.5716 21.1934 32.3086 21.5292 31.6505 21.6378C30.6497 21.592 29.7852 20.32 29.1114 19.6504C28.9341 19.4743 28.7562 19.2988 28.5783 19.1234C27.6327 18.1879 27.6327 18.1879 27.2197 17.7073C26.6258 17.0196 25.9586 16.3972 25.3092 15.7617C23.7563 14.2417 23.7563 14.2417 23.1721 13.5621C22.9582 13.3133 22.7325 13.0777 22.5017 12.8443C22.382 12.7216 22.382 12.7216 22.2599 12.5963C21.9197 12.3095 21.6253 12.1584 21.1748 12.1807C20.8027 12.3096 20.6174 12.4396 20.3368 12.7199C20.174 13.0739 20.0792 13.4423 19.9797 13.8178C19.9474 13.9335 19.915 14.0493 19.8817 14.1686C19.7703 14.57 19.6623 14.9722 19.5546 15.3745C19.5143 15.5232 19.4739 15.6718 19.4335 15.8204C19.1278 16.9448 18.8277 18.0707 18.5285 19.1969C18.2847 20.1138 18.0396 21.0305 17.7947 21.9471C17.7665 22.0527 17.7383 22.1583 17.7092 22.2671C17.0913 24.5797 16.4647 26.89 15.8364 29.1999C15.6587 29.8536 15.4811 30.5073 15.3035 31.161C14.3835 34.5481 14.3835 34.5481 13.9323 36.1965C13.7562 36.8402 13.5806 37.484 13.4055 38.128C13.3077 38.4876 13.2095 38.847 13.1106 39.2062C13.0052 39.5892 12.9009 39.9725 12.7969 40.3558C12.7661 40.4666 12.7353 40.5774 12.7036 40.6915C12.6767 40.7915 12.6498 40.8916 12.622 40.9947C12.5985 41.0808 12.5749 41.167 12.5506 41.2557C12.4937 41.5003 12.4937 41.5003 12.6267 41.8102C12.6855 41.7312 12.6855 41.7312 12.7455 41.6506C14.4006 39.4271 16.0557 37.2036 17.7109 34.98C17.7755 34.8932 17.8401 34.8064 17.9067 34.7169C18.0361 34.5432 18.1655 34.3695 18.295 34.1958C18.6369 33.7374 18.9769 33.2778 19.3145 32.8163C19.3851 32.7202 19.4557 32.6242 19.5284 32.5253C19.6637 32.3411 19.7984 32.1567 19.9326 31.9718C19.9937 31.8889 20.0547 31.806 20.1176 31.7205C20.1975 31.6111 20.1975 31.6111 20.279 31.4995C20.5222 31.2165 20.7608 31.005 21.1277 30.9108C21.6207 30.8915 21.9324 30.9399 22.3132 31.2608C22.4761 31.4198 22.6363 31.5816 22.7951 31.7447C22.9202 31.8667 23.0456 31.9884 23.1713 32.1098C24.2321 33.1411 24.2321 33.1411 24.7012 33.6877C25.3282 34.4054 26.025 35.0599 26.706 35.7267C26.9833 35.9982 27.2603 36.2702 27.537 36.5424C27.63 36.633 27.63 36.633 27.7248 36.7254C28.1202 37.1145 28.489 37.5199 28.8537 37.9372C29.1786 38.3015 29.522 38.6471 29.867 38.9927C29.9787 39.1046 29.9787 39.1046 30.0926 39.2187C30.2485 39.3745 30.4046 39.5302 30.5608 39.6857C30.7201 39.8447 30.879 40.0043 31.0373 40.1642C31.2677 40.397 31.4995 40.6282 31.7317 40.8592C31.8021 40.9309 31.8725 41.0025 31.9451 41.0763C32.4237 41.5566 32.4237 41.5566 33.0752 41.6996C33.5835 41.5769 33.7924 41.3482 34.0808 40.9253C34.2142 40.5875 34.3049 40.2413 34.3969 39.8905C34.4261 39.7836 34.4553 39.6767 34.4854 39.5666C34.5846 39.2018 34.6819 38.8365 34.7792 38.4712C34.8514 38.2043 34.9237 37.9375 34.9961 37.6707C35.1594 37.0679 35.3218 36.4648 35.4834 35.8616C35.7532 34.8551 36.0245 33.849 36.296 32.843C36.751 31.1574 37.205 29.4715 37.6584 27.7855C38.2846 25.4575 38.9129 23.1301 39.5435 20.8033C39.6446 20.4303 39.7456 20.0574 39.8465 19.6844C40.3829 17.7023 40.9224 15.721 41.4697 13.7418C41.6289 13.1658 41.7876 12.5898 41.9463 12.0137C42.0966 11.4685 42.2479 10.9235 42.3999 10.3788C42.4926 10.0461 42.5843 9.71314 42.6758 9.38012C42.7184 9.22615 42.7612 9.07228 42.8046 8.91853C42.8635 8.70913 42.921 8.49933 42.9784 8.28952C43.0109 8.17245 43.0434 8.05538 43.077 7.93477C43.131 7.63637 43.1225 7.47129 43.0201 7.18942Z" fill="white"/>
<path d="M182.454 9.92667C182.553 9.92632 182.653 9.92598 182.755 9.92562C183.089 9.92474 183.423 9.92544 183.756 9.92613C183.995 9.92583 184.234 9.92544 184.474 9.92496C185.124 9.92395 185.775 9.92434 186.425 9.92504C187.108 9.9256 187.79 9.92508 188.473 9.92474C189.621 9.92433 190.77 9.92486 191.918 9.92592C193.24 9.92712 194.562 9.92674 195.884 9.92551C197.022 9.9245 198.16 9.92437 199.298 9.92495C199.977 9.92529 200.655 9.92534 201.333 9.92461C201.973 9.92396 202.613 9.92443 203.253 9.92569C203.486 9.92598 203.719 9.92591 203.952 9.92541C207.626 9.91833 211.787 10.0503 214.618 12.682C216.637 14.7043 217.036 17.4417 217.031 20.172C217.031 20.3491 217.032 20.5262 217.032 20.7034C217.034 21.1801 217.034 21.6567 217.034 22.1334C217.034 22.5328 217.034 22.9322 217.035 23.3316C217.036 24.2741 217.036 25.2166 217.035 26.159C217.035 27.1288 217.036 28.0986 217.038 29.0684C217.04 29.904 217.041 30.7396 217.041 31.5752C217.04 32.073 217.041 32.5708 217.042 33.0686C217.044 33.5364 217.043 34.0043 217.042 34.4721C217.042 34.6431 217.042 34.814 217.043 34.9849C217.049 36.1726 217.021 37.3171 216.218 38.2708C215.393 38.924 214.593 38.9671 213.58 38.9633C213.462 38.9637 213.344 38.9641 213.223 38.9646C212.828 38.9657 212.433 38.9653 212.038 38.9648C211.754 38.9653 211.471 38.9659 211.188 38.9665C210.498 38.9679 209.808 38.9681 209.118 38.9679C208.557 38.9677 207.995 38.9679 207.434 38.9684C207.354 38.9684 207.274 38.9685 207.192 38.9686C207.029 38.9687 206.866 38.9688 206.704 38.969C205.18 38.9702 203.655 38.9699 202.131 38.9692C200.74 38.9687 199.349 38.9699 197.958 38.972C196.527 38.9742 195.096 38.9751 193.665 38.9747C192.863 38.9745 192.061 38.9747 191.258 38.9763C190.503 38.9778 189.747 38.9775 188.992 38.976C188.716 38.9758 188.439 38.9761 188.163 38.977C185.755 38.9844 183.231 38.9165 181.362 37.1859C179.652 35.3765 179.658 32.7977 179.658 30.4703C179.658 30.1708 179.656 29.8714 179.654 29.572C179.646 27.3556 179.773 25.2545 181.354 23.539C183.324 21.6505 186.324 21.6426 188.894 21.6543C189.092 21.6543 189.289 21.6543 189.487 21.6542C190.015 21.6541 190.544 21.6554 191.073 21.6569C191.628 21.6583 192.183 21.6584 192.739 21.6587C193.787 21.6594 194.835 21.6612 195.883 21.6634C197.078 21.6659 198.273 21.6671 199.467 21.6682C201.922 21.6705 204.377 21.6744 206.832 21.6794C206.817 21.4502 206.801 21.2211 206.784 20.9919C206.776 20.8643 206.767 20.7367 206.758 20.6053C206.696 20.0086 206.567 19.5533 206.147 19.1008C205.404 18.6691 204.673 18.533 203.821 18.5397C203.678 18.5388 203.678 18.5388 203.532 18.5379C203.215 18.5364 202.898 18.5372 202.581 18.538C202.353 18.5373 202.125 18.5366 201.897 18.5356C201.407 18.534 200.917 18.5333 200.427 18.5335C199.652 18.5337 198.877 18.5315 198.103 18.529C196.599 18.5245 195.095 18.5225 193.591 18.5206C191.675 18.5181 189.759 18.5144 187.843 18.5088C187.072 18.5066 186.302 18.5055 185.532 18.5053C185.053 18.505 184.575 18.5038 184.096 18.5024C183.874 18.5019 183.652 18.5018 183.43 18.5022C183.127 18.5025 182.824 18.5016 182.521 18.5003C182.433 18.5007 182.345 18.5011 182.254 18.5016C181.696 18.4973 181.262 18.4477 180.824 18.0915C180.536 17.7357 180.557 17.3763 180.555 16.9403C180.554 16.8074 180.552 16.6745 180.551 16.5375C180.551 16.3937 180.55 16.2499 180.55 16.1018C180.549 15.9526 180.549 15.8034 180.548 15.6542C180.547 15.3413 180.546 15.0284 180.546 14.7155C180.545 14.3157 180.542 13.9159 180.539 13.5161C180.537 13.2078 180.537 12.8995 180.536 12.5912C180.536 12.3725 180.534 12.1537 180.532 11.935C180.532 11.8011 180.532 11.6671 180.533 11.5291C180.532 11.4117 180.532 11.2943 180.532 11.1734C180.581 10.7714 180.684 10.5147 180.908 10.176C181.406 9.89948 181.899 9.92371 182.454 9.92667ZM189.815 28.389C189.694 28.783 189.694 29.1731 189.693 29.581C189.691 29.6641 189.688 29.7471 189.685 29.8327C189.683 30.2696 189.704 30.4792 189.947 30.8569C190.316 31.2093 190.53 31.2059 191.032 31.2073C191.165 31.2079 191.298 31.2086 191.436 31.2092C191.582 31.2094 191.729 31.2095 191.881 31.2096C192.036 31.2101 192.192 31.2107 192.347 31.2113C192.771 31.2127 193.194 31.2134 193.618 31.2139C193.882 31.2142 194.147 31.2147 194.411 31.2152C195.238 31.2167 196.065 31.2178 196.892 31.2182C197.847 31.2187 198.802 31.2206 199.757 31.2238C200.495 31.2262 201.233 31.2274 201.971 31.2275C202.412 31.2276 202.853 31.2283 203.294 31.2302C203.709 31.2321 204.123 31.2323 204.538 31.2313C204.763 31.2312 204.988 31.2327 205.213 31.2343C205.347 31.2337 205.48 31.2331 205.618 31.2324C205.735 31.2326 205.851 31.2328 205.971 31.2329C206.319 31.1855 206.47 31.1023 206.72 30.86C206.836 30.515 206.844 30.2765 206.843 29.915C206.842 29.7963 206.842 29.6776 206.841 29.5553C206.841 29.4315 206.84 29.3077 206.839 29.1801C206.838 28.9924 206.838 28.9924 206.837 28.8009C206.836 28.4918 206.834 28.1826 206.832 27.8735C204.714 27.8657 202.597 27.8599 200.479 27.8563C199.496 27.8546 198.513 27.8523 197.53 27.8485C196.673 27.8452 195.816 27.843 194.959 27.8423C194.505 27.8418 194.052 27.8408 193.598 27.8384C193.171 27.8362 192.744 27.8355 192.317 27.836C192.16 27.8359 192.003 27.8352 191.846 27.8339C191.632 27.8323 191.418 27.8329 191.204 27.8336C191.024 27.8331 191.024 27.8331 190.841 27.8327C190.404 27.8878 190.087 28.0418 189.815 28.389Z" fill="white"/>
<path d="M120.174 9.93896C120.353 9.93863 120.532 9.93825 120.711 9.93783C121.193 9.93687 121.675 9.9366 122.156 9.93653C122.459 9.93645 122.761 9.93621 123.064 9.93592C124.123 9.9349 125.182 9.93444 126.241 9.93453C127.221 9.9346 128.202 9.93343 129.182 9.93168C130.03 9.93023 130.877 9.92964 131.724 9.92971C132.228 9.92974 132.731 9.92944 133.235 9.92826C142.369 9.90826 142.369 9.90826 145.447 12.7764C147.307 14.7305 147.736 17.5321 147.739 20.1189C147.739 20.2222 147.74 20.3254 147.741 20.4318C147.742 20.7701 147.743 21.1084 147.744 21.4467C147.744 21.5636 147.744 21.6805 147.745 21.801C147.746 22.4204 147.747 23.0399 147.748 23.6593C147.748 24.2924 147.751 24.9255 147.754 25.5586C147.756 26.0513 147.757 26.5439 147.757 27.0366C147.757 27.2696 147.758 27.5026 147.76 27.7356C147.777 30.6941 147.573 33.8888 145.404 36.1392C145.32 36.2222 145.237 36.3052 145.151 36.3907C145.085 36.46 145.019 36.5293 144.951 36.6007C142.125 39.3294 137.245 38.9864 133.634 38.9793C133.066 38.9784 132.498 38.9792 131.93 38.9797C130.976 38.9803 130.023 38.9796 129.069 38.978C127.974 38.9762 126.878 38.9768 125.782 38.9786C124.834 38.9801 123.886 38.9803 122.939 38.9794C122.376 38.9789 121.813 38.9788 121.25 38.9799C112.944 38.9941 112.944 38.9941 109.997 36.4352C107.618 34.0728 107.458 30.7499 107.461 27.6201C107.46 27.3724 107.46 27.1246 107.459 26.8769C107.458 26.3597 107.458 25.8426 107.459 25.3254C107.46 24.6689 107.458 24.0123 107.455 23.3558C107.454 22.8446 107.453 22.3334 107.454 21.8221C107.454 21.5804 107.453 21.3386 107.452 21.0969C107.44 18.0573 107.695 14.9522 109.911 12.6369C112.606 10.1141 116.678 9.93765 120.174 9.93896ZM118.221 19.1356C117.641 20.2952 117.645 21.5073 117.644 22.7736C117.644 22.9087 117.643 23.0439 117.643 23.1831C117.642 23.4679 117.642 23.7528 117.642 24.0376C117.642 24.4696 117.64 24.9016 117.638 25.3336C117.637 25.6117 117.637 25.8898 117.637 26.168C117.636 26.2953 117.635 26.4227 117.635 26.5539C117.638 27.8486 117.665 29.2106 118.557 30.2311C119.524 30.7696 120.627 30.7978 121.711 30.7908C121.923 30.7914 121.923 30.7914 122.139 30.792C122.522 30.793 122.905 30.792 123.288 30.7905C123.691 30.7893 124.094 30.7897 124.497 30.79C125.174 30.7901 125.85 30.7888 126.527 30.7868C127.306 30.7844 128.085 30.7841 128.865 30.7848C129.618 30.7854 130.372 30.7848 131.126 30.7835C131.445 30.783 131.764 30.7829 132.083 30.7831C132.529 30.7834 132.975 30.7818 133.421 30.78C133.552 30.7803 133.683 30.7805 133.818 30.7808C135.4 30.7782 135.4 30.7782 136.77 30.086C137.833 28.71 137.588 26.4987 137.582 24.8643C137.58 24.5081 137.582 24.1519 137.583 23.7957C137.701 21.1102 137.701 21.1102 136.645 18.7692C135.718 18.2306 134.753 18.2026 133.702 18.2078C133.555 18.2072 133.409 18.2066 133.258 18.206C132.859 18.2045 132.46 18.2051 132.061 18.2062C131.641 18.207 131.222 18.2062 130.803 18.2057C130.098 18.2051 129.394 18.2059 128.69 18.2075C127.879 18.2093 127.067 18.2087 126.256 18.2069C125.556 18.2054 124.857 18.2052 124.157 18.206C123.741 18.2065 123.324 18.2066 122.908 18.2055C122.443 18.2044 121.978 18.206 121.513 18.2078C121.377 18.2071 121.241 18.2065 121.1 18.2058C120.037 18.2135 118.96 18.2998 118.221 19.1356Z" fill="white"/>
<path d="M80.028 9.92528C80.5364 9.92585 81.0447 9.92532 81.5531 9.92497C82.4062 9.92457 83.2592 9.92509 84.1122 9.92615C85.0912 9.92736 86.0702 9.92697 87.0492 9.92575C87.8974 9.92474 88.7456 9.92461 89.5938 9.92518C90.097 9.92552 90.6002 9.92559 91.1035 9.92484C100.424 9.913 100.424 9.913 103.336 12.6792C105.493 14.9689 105.742 18.1039 105.737 21.0772C105.738 21.2617 105.738 21.4461 105.739 21.6306C105.74 22.1246 105.74 22.6186 105.74 23.1126C105.74 23.5266 105.741 23.9407 105.741 24.3547C105.742 25.3308 105.742 26.307 105.742 27.2831C105.741 28.2885 105.742 29.294 105.745 30.2994C105.747 31.1659 105.747 32.0324 105.747 32.8989C105.747 33.4151 105.747 33.9313 105.749 34.4475C105.75 34.9316 105.75 35.4157 105.748 35.8998C105.748 36.0772 105.749 36.2546 105.749 36.4319C105.751 36.6743 105.75 36.9166 105.748 37.1589C105.748 37.3621 105.748 37.3621 105.748 37.5694C105.689 38.0911 105.534 38.469 105.123 38.8073C104.737 38.9657 104.391 38.9829 103.98 38.9811C103.898 38.9821 103.817 38.983 103.732 38.984C103.463 38.9865 103.193 38.9867 102.924 38.9865C102.736 38.9873 102.548 38.9882 102.36 38.9891C101.966 38.9906 101.573 38.9907 101.179 38.9901C100.675 38.9894 100.172 38.9928 99.6682 38.9973C99.28 39.0002 98.8919 39.0005 98.5037 39.0001C98.3181 39.0003 98.1325 39.0013 97.9468 39.0033C97.6868 39.0058 97.4271 39.0047 97.1671 39.0027C97.091 39.0042 97.0149 39.0057 96.9364 39.0072C96.3212 38.9965 96.0682 38.7954 95.6498 38.3816C95.5019 38.0888 95.5228 37.8676 95.5212 37.5395C95.5202 37.4075 95.5193 37.2754 95.5184 37.1393C95.5179 36.9936 95.5174 36.8479 95.5169 36.6978C95.5161 36.5433 95.5151 36.3889 95.5141 36.2344C95.5121 35.9011 95.5104 35.5679 95.509 35.2346C95.5068 34.7063 95.5037 34.1781 95.5004 33.6498C95.4937 32.5264 95.4879 31.4029 95.4822 30.2795C95.4761 29.0711 95.4697 27.8628 95.4624 26.6544C95.4593 26.1308 95.4566 25.6071 95.4544 25.0834C95.4529 24.7551 95.4509 24.4268 95.4489 24.0985C95.4476 23.8769 95.4468 23.6553 95.4461 23.4337C95.5256 21.3767 95.5256 21.3767 94.7699 19.5365C93.8996 18.8778 92.685 19.0085 91.6456 19.0089C91.5038 19.0085 91.362 19.0082 91.2158 19.0078C90.8289 19.0068 90.4419 19.0065 90.0549 19.0065C89.8125 19.0064 89.57 19.0062 89.3276 19.0059C88.4798 19.0048 87.632 19.0044 86.7843 19.0045C85.9972 19.0045 85.2102 19.0034 84.4231 19.0016C83.7448 19.0002 83.0664 18.9996 82.388 18.9997C81.9841 18.9997 81.5801 18.9994 81.1761 18.9982C80.7248 18.9969 80.2734 18.9974 79.8221 18.9981C79.6904 18.9975 79.5587 18.9969 79.423 18.9962C77.7568 18.9795 77.7568 18.9795 76.3187 19.6886C75.3676 20.8655 75.5201 22.4954 75.5225 23.9228C75.5223 24.0778 75.5221 24.2327 75.5219 24.3876C75.5214 24.7187 75.5211 25.0498 75.5211 25.3809C75.521 25.9048 75.5196 26.4287 75.5178 26.9526C75.5175 27.0414 75.5173 27.1301 75.517 27.2216C75.5164 27.4029 75.5158 27.5842 75.5152 27.7655C75.5113 28.9834 75.5083 30.2014 75.5086 31.4194C75.5087 32.2436 75.507 33.0679 75.5029 33.8921C75.5008 34.3275 75.4998 34.7628 75.5012 35.1982C75.5024 35.607 75.5011 36.0158 75.4979 36.4246C75.4968 36.6456 75.4984 36.8666 75.5002 37.0876C75.4875 38.1703 75.4875 38.1703 75.1549 38.5796C74.7113 38.9551 74.4087 38.9516 73.8466 38.9525C73.7646 38.953 73.6826 38.9536 73.5982 38.9542C73.3264 38.9558 73.0546 38.9565 72.7828 38.9571C72.594 38.9578 72.4053 38.9584 72.2165 38.9591C71.8204 38.9602 71.4243 38.9609 71.0282 38.9612C70.5209 38.9619 70.0137 38.9645 69.5064 38.9677C69.1164 38.9697 68.7263 38.9703 68.3363 38.9705C68.1493 38.9708 67.9623 38.9717 67.7753 38.9731C67.5135 38.975 67.2517 38.9748 66.9898 38.9741C66.9128 38.9751 66.8357 38.9761 66.7563 38.9772C66.2737 38.9731 65.9647 38.9113 65.5917 38.6028C65.2868 38.1037 65.2144 37.7324 65.2139 37.1528C65.2133 37.0761 65.2128 36.9995 65.2123 36.9206C65.211 36.6651 65.212 36.4097 65.2131 36.1543C65.2126 35.9705 65.212 35.7868 65.2113 35.603C65.2098 35.1042 65.2103 34.6055 65.2114 34.1067C65.2123 33.5826 65.2115 33.0584 65.2109 32.5343C65.2103 31.6523 65.2111 30.7704 65.2127 29.8884C65.2145 28.8744 65.214 27.8603 65.2121 26.8463C65.2106 25.9723 65.2104 25.0983 65.2113 24.2242C65.2118 23.7038 65.2119 23.1834 65.2107 22.663C65.1979 15.7478 65.1979 15.7478 67.0443 13.3839C67.1163 13.2901 67.1883 13.1962 67.2625 13.0996C69.0699 10.9329 71.9789 10.3148 74.6741 10.0553C76.4534 9.89229 78.2429 9.92265 80.028 9.92528Z" fill="white"/>
<path d="M163.963 9.92129C164.33 9.92141 164.698 9.92086 165.065 9.92034C165.931 9.91912 166.797 9.91905 167.663 9.91973C168.555 9.9204 169.446 9.91902 170.338 9.91668C171.107 9.91473 171.877 9.91407 172.647 9.91443C173.105 9.91463 173.563 9.91434 174.021 9.9128C174.449 9.91141 174.878 9.91162 175.307 9.91307C175.464 9.91333 175.621 9.91302 175.778 9.91211C175.993 9.91096 176.207 9.91205 176.422 9.91325C176.542 9.91323 176.661 9.91322 176.785 9.9132C177.159 9.96114 177.366 10.0647 177.667 10.2865C177.93 10.6769 177.921 10.8444 177.925 11.3072C177.927 11.4493 177.929 11.5914 177.93 11.7379C177.931 11.8933 177.932 12.0486 177.932 12.204C177.933 12.3634 177.934 12.5228 177.935 12.6822C177.937 13.0163 177.938 13.3505 177.938 13.6847C177.939 14.1123 177.943 14.5399 177.948 14.9675C177.952 15.2967 177.952 15.626 177.953 15.9553C177.953 16.1129 177.954 16.2705 177.957 16.4281C177.96 16.6489 177.959 16.8696 177.958 17.0904C177.958 17.2159 177.959 17.3414 177.96 17.4707C177.869 17.9149 177.682 18.0788 177.332 18.361C176.988 18.4746 176.752 18.4859 176.391 18.4868C176.265 18.4874 176.139 18.488 176.009 18.4887C175.802 18.4888 175.802 18.4888 175.59 18.489C175.367 18.4899 175.143 18.4907 174.92 18.4916C174.679 18.4925 174.439 18.4931 174.199 18.4936C173.697 18.4948 173.195 18.497 172.694 18.4995C171.267 18.5063 169.841 18.5123 168.414 18.516C167.627 18.518 166.839 18.5212 166.051 18.5257C165.635 18.528 165.218 18.5297 164.802 18.53C164.336 18.5303 163.871 18.5331 163.406 18.5361C163.269 18.5358 163.132 18.5355 162.991 18.5351C162.098 18.5437 161.382 18.663 160.592 19.0799C159.61 20.1914 159.772 21.9229 159.771 23.2988C159.771 23.4593 159.77 23.6199 159.77 23.7804C159.768 24.1239 159.767 24.4675 159.767 24.811C159.765 25.3544 159.763 25.8978 159.761 26.4412C159.754 27.9856 159.748 29.53 159.744 31.0744C159.742 31.929 159.739 32.7836 159.734 33.6383C159.732 34.0899 159.73 34.5415 159.73 34.9931C159.73 35.4172 159.728 35.8412 159.725 36.2653C159.724 36.4208 159.724 36.5763 159.724 36.7318C159.725 36.9441 159.723 37.1565 159.721 37.3689C159.721 37.4877 159.72 37.6065 159.72 37.7288C159.659 38.1841 159.468 38.4734 159.149 38.8002C158.792 38.9884 158.458 38.9815 158.063 38.979C157.939 38.9802 157.939 38.9802 157.811 38.9813C157.537 38.9833 157.263 38.9829 156.989 38.9823C156.798 38.9828 156.607 38.9834 156.416 38.984C156.016 38.985 155.616 38.9848 155.216 38.9837C154.704 38.9824 154.191 38.9846 153.679 38.9879C153.285 38.9899 152.891 38.9899 152.496 38.9892C152.307 38.9892 152.119 38.9899 151.93 38.9913C151.666 38.9929 151.401 38.9917 151.137 38.9898C151.059 38.9909 150.982 38.992 150.902 38.9931C150.517 38.9873 150.301 38.9405 149.973 38.7373C149.517 38.2721 149.481 37.9239 149.48 37.2805C149.479 37.2031 149.479 37.1257 149.478 37.0459C149.477 36.7865 149.478 36.5271 149.478 36.2676C149.478 36.0815 149.477 35.8954 149.476 35.7093C149.475 35.2033 149.475 34.6972 149.475 34.1911C149.475 33.7674 149.475 33.3437 149.474 32.92C149.473 31.9182 149.473 30.9165 149.473 29.9148C149.474 28.8862 149.473 27.8576 149.47 26.8289C149.468 25.9431 149.468 25.0572 149.468 24.1714C149.468 23.6436 149.468 23.1158 149.466 22.5881C149.446 15.1946 149.446 15.1946 151.984 12.5652C155.146 9.7057 159.967 9.9187 163.963 9.92129Z" fill="white"/>
</g>
<defs>
<clipPath id="clip0_182_15002">
<rect width="217" height="49" fill="white"/>
</clipPath>
</defs>
</svg>
