<svg width="498" height="113" viewBox="0 0 498 113" fill="none" xmlns="http://www.w3.org/2000/svg">
<g clip-path="url(#clip0_15_395)">
<path d="M63.8848 -0.0796608C64.1023 -0.079111 64.3199 -0.0785613 64.5441 -0.0779949C77.4167 -0.0260666 89.9552 3.85613 100.523 11.2235C100.576 11.0088 100.63 10.7941 100.684 10.5729C101.544 7.12678 102.445 3.69122 103.344 0.25513C104.63 0.25513 104.808 0.553394 105.716 1.41893C105.969 1.65727 106.222 1.89541 106.475 2.13335C106.711 2.3553 106.947 2.57725 107.191 2.80592C107.52 3.08417 107.851 3.36075 108.184 3.63493C119.799 13.753 126.454 29.7048 127.647 44.7456C128.648 60.4418 124.255 76.1316 114.371 88.5125C114.196 88.7351 114.022 88.9577 113.842 89.187C103.483 102.124 88.2499 110.605 71.7362 112.653C56.0006 114.156 40.4966 110.833 27.4387 101.777C26.6629 104.21 25.9763 106.658 25.3231 109.126C25.229 109.48 25.1349 109.833 25.0406 110.187C24.8136 111.039 24.5873 111.892 24.3615 112.745C22.1993 112.745 19.7559 109.495 18.3032 108.058C16.6232 106.376 15.0203 104.697 13.5911 102.797C13.3732 102.517 13.1551 102.237 12.937 101.957C2.80106 88.7675 -1.66717 71.7718 0.410827 55.3199C1.77233 45.5407 5.13323 35.5893 11.0268 27.5486C11.1381 27.3953 11.2493 27.242 11.364 27.0841C14.9662 22.139 18.9741 17.523 23.8486 13.7743C24.0879 13.58 24.3273 13.3857 24.5738 13.1854C28.1139 10.3639 32.053 8.00153 36.1652 6.1014C36.6847 5.86027 37.1997 5.61109 37.7152 5.36169C42.0238 3.32191 46.6192 1.99519 51.2873 1.05225C51.5285 1.00353 51.7697 0.9548 52.0181 0.904598C55.9574 0.161246 59.8816 -0.098046 63.8848 -0.0796608ZM98.7281 16.5802C98.6382 16.7016 98.5482 16.8231 98.4555 16.9482C97.0458 18.8512 95.6362 20.7542 94.2265 22.6572C94.0073 22.9531 94.0073 22.9531 93.7837 23.255C93.4879 23.6543 93.1921 24.0536 92.8962 24.4529C92.141 25.4721 91.3863 26.4916 90.6323 27.5117C89.1122 29.5676 87.5855 31.6179 86.0433 33.6574C84.4432 35.7758 82.8681 37.9125 81.2904 40.0475C80.2405 41.4682 79.1896 42.8883 78.1361 44.3065C77.8437 44.7007 77.5518 45.0954 77.2606 45.4904C76.8422 46.0578 76.422 46.6239 76.0014 47.1897C75.8771 47.3592 75.7528 47.5288 75.6247 47.7035C74.7497 48.875 74.1461 49.6495 72.6357 49.8999C70.339 49.7943 68.3549 46.8609 66.8087 45.3167C66.4018 44.9106 65.9936 44.5059 65.5852 44.1013C63.4152 41.9441 63.4152 41.9441 62.4674 40.8356C61.1044 39.2499 59.5732 37.8146 58.0829 36.3488C54.519 32.8437 54.519 32.8437 53.1783 31.2764C52.6874 30.7027 52.1695 30.1594 51.6399 29.6211C51.3652 29.338 51.3652 29.338 51.085 29.0492C50.3041 28.3877 49.6285 28.0392 48.5948 28.0906C47.7408 28.3879 47.3156 28.6878 46.6715 29.3341C46.298 30.1505 46.0804 31 45.8521 31.866C45.7778 32.133 45.7036 32.3999 45.6271 32.675C45.3716 33.6006 45.1237 34.5282 44.8764 35.456C44.784 35.7988 44.6914 36.1415 44.5986 36.4842C43.8969 39.0773 43.2084 41.6737 42.5217 44.2708C41.9621 46.3854 41.3997 48.4993 40.8375 50.6133C40.7728 50.8568 40.7081 51.1003 40.6414 51.3511C39.2234 56.6844 37.7854 62.0122 36.3435 67.3392C35.9355 68.8466 35.528 70.3541 35.1206 71.8616C33.0091 79.6728 33.0091 79.6728 31.9737 83.4741C31.5695 84.9585 31.1665 86.4433 30.7647 87.9283C30.5403 88.7575 30.3148 89.5864 30.0879 90.4149C29.846 91.2981 29.6067 92.182 29.368 93.066C29.2973 93.3214 29.2266 93.5769 29.1538 93.84C29.0921 94.0708 29.0303 94.3016 28.9667 94.5393C28.9126 94.738 28.8585 94.9366 28.8027 95.1413C28.6722 95.7053 28.6722 95.7053 28.9773 96.4199C29.1123 96.2378 29.1123 96.2378 29.2499 96.0519C33.0484 90.9242 36.8468 85.7965 40.6452 80.6688C40.7935 80.4685 40.9418 80.2683 41.0946 80.062C41.3915 79.6613 41.6886 79.2607 41.9859 78.8603C42.7704 77.8031 43.5507 76.7431 44.3255 75.6788C44.4875 75.4573 44.6494 75.2359 44.8163 75.0077C45.1267 74.5831 45.436 74.1577 45.7439 73.7313C45.8841 73.5401 46.0242 73.3489 46.1686 73.1519C46.3519 72.8996 46.3519 72.8996 46.5389 72.6423C47.0971 71.9896 47.6446 71.5019 48.4866 71.2847C49.618 71.2401 50.3335 71.3516 51.2072 72.0918C51.5811 72.4585 51.9488 72.8316 52.3131 73.2077C52.6002 73.4891 52.8881 73.7697 53.1766 74.0497C55.611 76.4279 55.611 76.4279 56.6875 77.6885C58.1264 79.3436 59.7255 80.8528 61.2884 82.3906C61.9249 83.0169 62.5605 83.6441 63.1956 84.2718C63.4089 84.4807 63.4089 84.4807 63.6264 84.6939C64.5339 85.591 65.3802 86.526 66.2172 87.4882C66.963 88.3284 67.7509 89.1254 68.5427 89.9224C68.799 90.1804 68.799 90.1804 69.0605 90.4436C69.4183 90.803 69.7764 91.162 70.1349 91.5207C70.5006 91.8874 70.8652 92.2552 71.2285 92.6242C71.7572 93.1609 72.2892 93.6942 72.822 94.2268C72.9837 94.3921 73.1453 94.5573 73.3118 94.7276C74.4102 95.8352 74.4102 95.8352 75.9053 96.1648C77.0717 95.8818 77.5513 95.3546 78.2132 94.3793C78.5193 93.6003 78.7275 92.8018 78.9384 91.9929C79.0054 91.7464 79.0725 91.4999 79.1415 91.2459C79.3694 90.4046 79.5926 89.5622 79.8159 88.7197C79.9816 88.1043 80.1475 87.489 80.3137 86.8737C80.6884 85.4835 81.0611 84.0928 81.432 82.7017C82.051 80.3806 82.6738 78.0605 83.2969 75.7405C84.3409 71.8533 85.3828 67.9654 86.4235 64.0773C87.8606 58.7087 89.3025 53.3413 90.7497 47.9754C90.9817 47.1154 91.2134 46.2553 91.4451 45.3952C92.676 40.8241 93.914 36.2551 95.1702 31.6907C95.5355 30.3625 95.8996 29.034 96.2638 27.7055C96.6088 26.4482 96.956 25.1915 97.3049 23.9353C97.5175 23.168 97.7281 22.4002 97.9381 21.6322C98.0357 21.2771 98.1341 20.9223 98.2335 20.5677C98.3687 20.0848 98.5007 19.601 98.6324 19.1172C98.7071 18.8472 98.7817 18.5772 98.8587 18.299C98.9827 17.6109 98.9632 17.2302 98.7281 16.5802Z" fill="#040707"/>
<path d="M418.719 22.8924C418.948 22.8916 419.176 22.8908 419.411 22.89C420.177 22.8879 420.942 22.8895 421.707 22.8912C422.256 22.8905 422.805 22.8896 423.354 22.8884C424.847 22.8861 426.34 22.887 427.833 22.8886C429.399 22.8899 430.966 22.8887 432.532 22.8879C435.168 22.887 437.803 22.8882 440.439 22.8907C443.473 22.8934 446.507 22.8925 449.541 22.8897C452.153 22.8874 454.764 22.8871 457.376 22.8884C458.933 22.8892 460.489 22.8893 462.046 22.8876C463.514 22.8861 464.983 22.8872 466.452 22.8901C466.986 22.8908 467.521 22.8906 468.055 22.8895C476.488 22.8732 486.036 23.1775 492.534 29.2465C497.167 33.9101 498.082 40.223 498.07 46.5193C498.072 46.9278 498.073 47.3363 498.074 47.7448C498.078 48.8441 498.078 49.9434 498.077 51.0427C498.077 51.9638 498.078 52.8848 498.08 53.8059C498.082 55.9793 498.083 58.1527 498.081 60.3262C498.079 62.5627 498.083 64.7991 498.088 67.0356C498.093 68.9626 498.094 70.8896 498.093 72.8166C498.093 73.9645 498.093 75.1125 498.097 76.2605C498.1 77.3394 498.1 78.4183 498.096 79.4972C498.096 79.8914 498.096 80.2856 498.099 80.6799C498.112 83.4187 498.047 86.0581 496.205 88.2574C494.312 89.7637 492.477 89.8633 490.152 89.8544C489.881 89.8553 489.61 89.8563 489.331 89.8573C488.425 89.8599 487.518 89.8589 486.612 89.8579C485.962 89.859 485.311 89.8604 484.661 89.8619C483.078 89.8649 481.495 89.8656 479.912 89.865C478.623 89.8645 477.335 89.865 476.047 89.8661C475.863 89.8662 475.68 89.8664 475.49 89.8665C475.117 89.8668 474.744 89.8671 474.371 89.8675C470.873 89.8702 467.375 89.8697 463.877 89.8681C460.685 89.8668 457.492 89.8697 454.3 89.8745C451.016 89.8795 447.732 89.8816 444.448 89.8806C442.607 89.8801 440.766 89.8808 438.924 89.8844C437.191 89.8877 435.457 89.8871 433.723 89.8838C433.089 89.8832 432.455 89.8838 431.822 89.886C426.295 89.9031 420.503 89.7465 416.214 85.7554C412.289 81.5828 412.302 75.6358 412.303 70.2685C412.302 69.5779 412.297 68.8874 412.293 68.1968C412.276 63.0857 412.566 58.2404 416.196 54.2841C420.715 49.9289 427.601 49.9107 433.5 49.9376C433.953 49.9378 434.406 49.9377 434.859 49.9374C436.072 49.9373 437.286 49.9402 438.499 49.9438C439.773 49.947 441.047 49.9473 442.322 49.9479C444.727 49.9495 447.133 49.9537 449.539 49.9588C452.28 49.9645 455.022 49.9673 457.764 49.9699C463.397 49.9752 469.031 49.9841 474.664 49.9955C474.63 49.467 474.593 48.9386 474.556 48.4103C474.536 48.116 474.516 47.8217 474.495 47.5185C474.352 46.1425 474.058 45.0926 473.094 44.049C471.389 43.0535 469.71 42.7396 467.755 42.7551C467.426 42.7531 467.426 42.753 467.091 42.751C466.364 42.7475 465.637 42.7493 464.91 42.7511C464.387 42.7497 463.863 42.7479 463.339 42.7457C462.215 42.7419 461.09 42.7404 459.965 42.7408C458.188 42.7413 456.41 42.7363 454.632 42.7305C451.18 42.7201 447.729 42.7153 444.277 42.7111C439.88 42.7054 435.483 42.6968 431.086 42.6838C429.318 42.6787 427.551 42.6762 425.783 42.6759C424.684 42.6752 423.586 42.6724 422.488 42.6691C421.978 42.668 421.468 42.6678 420.958 42.6685C420.263 42.6694 419.568 42.6671 418.873 42.6641C418.671 42.6651 418.469 42.6662 418.26 42.6672C416.981 42.6574 415.984 42.543 414.979 41.7214C414.319 40.9009 414.367 40.0721 414.36 39.0667C414.358 38.7602 414.355 38.4536 414.353 38.1378C414.352 37.8062 414.351 37.4746 414.35 37.133C414.348 36.7889 414.347 36.4448 414.345 36.1007C414.342 35.3792 414.341 34.6576 414.34 33.9361C414.339 33.014 414.332 32.0921 414.325 31.1701C414.32 30.4591 414.319 29.7481 414.319 29.0371C414.318 28.5327 414.313 28.0283 414.308 27.5239C414.309 27.215 414.309 26.906 414.31 26.5877C414.309 26.317 414.308 26.0463 414.307 25.7674C414.421 24.8405 414.657 24.2486 415.171 23.4673C416.314 22.8297 417.446 22.8856 418.719 22.8924ZM435.612 65.4687C435.334 66.3773 435.335 67.2769 435.333 68.2178C435.327 68.4093 435.321 68.6008 435.314 68.7982C435.309 69.8056 435.357 70.2891 435.916 71.1601C436.763 71.9728 437.253 71.9649 438.405 71.9682C438.711 71.9696 439.017 71.9711 439.331 71.9726C439.668 71.9729 440.005 71.9731 440.353 71.9734C440.71 71.9746 441.067 71.9759 441.424 71.9773C442.396 71.9806 443.368 71.9823 444.339 71.9834C444.946 71.9842 445.553 71.9852 446.16 71.9863C448.057 71.9898 449.955 71.9923 451.853 71.9933C454.045 71.9944 456.237 71.9989 458.429 72.0063C460.123 72.0118 461.816 72.0144 463.51 72.0147C464.522 72.015 465.534 72.0165 466.546 72.021C467.497 72.0252 468.449 72.0258 469.401 72.0236C469.917 72.0233 470.433 72.0268 470.949 72.0304C471.256 72.029 471.563 72.0275 471.88 72.0261C472.147 72.0265 472.414 72.0268 472.689 72.0272C473.489 71.9178 473.835 71.7261 474.408 71.1671C474.674 70.3717 474.694 69.8216 474.689 68.988C474.688 68.7142 474.688 68.4405 474.687 68.1585C474.685 67.8729 474.683 67.5873 474.68 67.2931C474.679 66.8603 474.679 66.8603 474.677 66.4187C474.674 65.7058 474.67 64.9929 474.664 64.28C469.805 64.2621 464.946 64.2486 460.086 64.2403C457.83 64.2364 455.574 64.231 453.317 64.2222C451.351 64.2146 449.384 64.2097 447.418 64.208C446.376 64.207 445.335 64.2046 444.294 64.1991C443.314 64.1939 442.333 64.1923 441.353 64.1934C440.994 64.1932 440.634 64.1917 440.274 64.1887C439.783 64.1849 439.291 64.1863 438.8 64.1879C438.388 64.1869 438.388 64.1869 437.967 64.1858C436.965 64.3129 436.237 64.6681 435.612 65.4687Z" fill="#040707"/>
<path d="M275.792 22.9201C276.203 22.9193 276.614 22.9184 277.024 22.9175C278.13 22.9152 279.235 22.9146 280.34 22.9145C281.034 22.9143 281.728 22.9137 282.422 22.9131C284.853 22.9107 287.284 22.9097 289.715 22.9099C291.965 22.91 294.214 22.9073 296.464 22.9033C298.409 22.8999 300.353 22.8986 302.298 22.8987C303.453 22.8988 304.609 22.8981 305.765 22.8954C326.728 22.8493 326.728 22.8493 333.791 29.4636C338.059 33.9699 339.043 40.4307 339.051 46.3963C339.052 46.6344 339.053 46.8724 339.054 47.1177C339.058 47.898 339.06 48.6782 339.061 49.4584C339.062 49.728 339.063 49.9976 339.064 50.2753C339.067 51.7039 339.07 53.1324 339.071 54.5609C339.072 56.021 339.078 57.4809 339.086 58.941C339.091 60.077 339.092 61.2131 339.092 62.3492C339.093 62.8866 339.095 63.4239 339.098 63.9613C339.139 70.7839 338.67 78.1513 333.691 83.3411C333.5 83.5325 333.308 83.7238 333.111 83.921C332.96 84.0808 332.808 84.2406 332.651 84.4053C326.168 90.6981 314.967 89.907 306.682 89.8906C305.378 89.8886 304.074 89.8905 302.77 89.8917C300.581 89.8931 298.393 89.8913 296.205 89.8876C293.691 89.8834 291.176 89.8848 288.662 89.889C286.486 89.8925 284.311 89.8929 282.136 89.8909C280.844 89.8898 279.551 89.8896 278.259 89.8921C259.199 89.9247 259.199 89.9247 252.435 84.0236C246.976 78.5756 246.61 70.9126 246.615 63.695C246.614 63.1237 246.613 62.5523 246.612 61.9809C246.61 60.7883 246.61 59.5957 246.611 58.4031C246.613 56.889 246.608 55.375 246.602 53.861C246.599 52.682 246.598 51.5031 246.599 50.3241C246.599 49.7666 246.598 49.2091 246.595 48.6516C246.566 41.6419 247.153 34.4811 252.238 29.1418C258.422 23.3239 267.769 22.917 275.792 22.9201ZM271.31 44.1287C269.979 46.8029 269.988 49.5982 269.985 52.5184C269.984 52.83 269.983 53.1416 269.982 53.4626C269.981 54.1195 269.98 54.7764 269.98 55.4332C269.98 56.4295 269.975 57.4258 269.97 58.4221C269.969 59.0634 269.969 59.7048 269.969 60.3461C269.967 60.6398 269.965 60.9336 269.963 61.2362C269.971 64.2219 270.033 67.3628 272.079 69.7163C274.299 70.9582 276.832 71.0232 279.318 71.0069C279.804 71.0083 279.804 71.0083 280.3 71.0098C281.179 71.0121 282.058 71.0098 282.937 71.0064C283.862 71.0034 284.787 71.0045 285.713 71.005C287.265 71.0052 288.817 71.0024 290.37 70.9977C292.159 70.9923 293.947 70.9914 295.736 70.993C297.465 70.9945 299.195 70.993 300.924 70.9902C301.656 70.989 302.388 70.9888 303.121 70.9893C304.145 70.9899 305.169 70.9862 306.193 70.982C306.493 70.9827 306.793 70.9833 307.102 70.9839C310.734 70.978 310.734 70.978 313.878 69.3815C316.316 66.2084 315.755 61.1089 315.74 57.3397C315.738 56.5182 315.74 55.6968 315.744 54.8754C316.015 48.6824 316.015 48.6824 313.59 43.2837C311.462 42.0415 309.249 41.9771 306.836 41.989C306.5 41.9877 306.164 41.9863 305.817 41.985C304.902 41.9815 303.986 41.9828 303.07 41.9853C302.108 41.9872 301.145 41.9854 300.183 41.9842C298.567 41.9828 296.951 41.9846 295.335 41.9883C293.473 41.9924 291.61 41.9911 289.748 41.9869C288.143 41.9834 286.538 41.9829 284.933 41.9849C283.977 41.9861 283.021 41.9863 282.065 41.9837C280.998 41.9811 279.931 41.9848 278.865 41.989C278.552 41.9875 278.239 41.9859 277.917 41.9843C275.478 42.0023 273.006 42.2011 271.31 44.1287Z" fill="#040707"/>
<path d="M183.659 22.8886C184.825 22.8899 185.992 22.8887 187.159 22.8879C189.116 22.887 191.074 22.8882 193.032 22.8906C195.279 22.8934 197.525 22.8925 199.772 22.8897C201.718 22.8874 203.665 22.8871 205.611 22.8884C206.766 22.8892 207.921 22.8893 209.076 22.8876C230.466 22.8603 230.466 22.8603 237.15 29.2395C242.1 34.5199 242.672 41.7495 242.66 48.6063C242.661 49.0317 242.662 49.4571 242.663 49.8825C242.667 51.0217 242.667 52.1609 242.666 53.3002C242.666 54.255 242.667 55.2098 242.669 56.1646C242.671 58.4157 242.672 60.6668 242.67 62.9179C242.668 65.2365 242.672 67.5552 242.677 69.8739C242.682 71.8721 242.683 73.8704 242.682 75.8687C242.682 77.0591 242.683 78.2495 242.686 79.4399C242.689 80.5563 242.689 81.6727 242.685 82.7891C242.685 83.1981 242.686 83.6072 242.688 84.0162C242.69 84.5751 242.688 85.1338 242.685 85.6927C242.685 86.1613 242.685 86.1613 242.685 86.6394C242.55 87.8425 242.193 88.714 241.25 89.4942C240.364 89.8594 239.571 89.899 238.627 89.895C238.44 89.8971 238.252 89.8993 238.058 89.9015C237.44 89.9074 236.822 89.9077 236.203 89.9074C235.772 89.9092 235.34 89.9112 234.909 89.9133C234.005 89.9167 233.102 89.9171 232.199 89.9156C231.043 89.9141 229.887 89.9219 228.732 89.9322C227.841 89.9388 226.95 89.9396 226.059 89.9386C225.633 89.9391 225.207 89.9415 224.781 89.9461C224.185 89.9517 223.588 89.9493 222.992 89.9448C222.817 89.9482 222.642 89.9515 222.462 89.955C221.05 89.9304 220.47 89.4666 219.51 88.5124C219.17 87.8371 219.218 87.3271 219.214 86.5705C219.212 86.2659 219.21 85.9613 219.208 85.6475C219.207 85.3114 219.206 84.9754 219.205 84.6292C219.203 84.2731 219.201 83.9169 219.198 83.5607C219.194 82.7922 219.19 82.0236 219.187 81.255C219.181 80.0368 219.174 78.8185 219.167 77.6003C219.151 75.0095 219.138 72.4187 219.125 69.8279C219.111 67.0413 219.096 64.2547 219.08 61.4681C219.072 60.2604 219.066 59.0528 219.061 57.8451C219.058 57.088 219.053 56.3309 219.049 55.5738C219.046 55.0627 219.044 54.5516 219.042 54.0406C219.225 49.2969 219.225 49.2969 217.49 45.0534C215.493 43.5342 212.706 43.8357 210.32 43.8366C209.995 43.8357 209.669 43.8349 209.334 43.834C208.446 43.8317 207.558 43.8311 206.67 43.831C206.113 43.8308 205.557 43.8302 205.001 43.8296C203.055 43.8272 201.109 43.8262 199.164 43.8264C197.358 43.8265 195.551 43.8238 193.745 43.8198C192.188 43.8164 190.632 43.8151 189.075 43.8152C188.148 43.8153 187.221 43.8146 186.294 43.8119C185.258 43.8089 184.222 43.8101 183.186 43.8117C182.884 43.8102 182.582 43.8088 182.27 43.8073C178.446 43.7687 178.446 43.7687 175.146 45.4041C172.964 48.118 173.313 51.8769 173.319 55.1687C173.319 55.5259 173.318 55.8832 173.317 56.2405C173.316 57.0041 173.316 57.7676 173.316 58.5311C173.315 59.7394 173.312 60.9476 173.308 62.1558C173.308 62.3604 173.307 62.5651 173.306 62.776C173.305 63.1941 173.303 63.6122 173.302 64.0303C173.293 66.8391 173.286 69.6478 173.287 72.4566C173.287 74.3575 173.283 76.2582 173.274 78.1591C173.269 79.1631 173.267 80.167 173.27 81.171C173.273 82.1138 173.27 83.0565 173.262 83.9994C173.26 84.509 173.264 85.0186 173.268 85.5282C173.239 88.025 173.239 88.025 172.475 88.9689C171.457 89.835 170.763 89.8269 169.473 89.8289C169.285 89.8302 169.097 89.8315 168.903 89.8328C168.279 89.8365 167.655 89.8382 167.031 89.8397C166.598 89.8411 166.165 89.8426 165.732 89.8441C164.823 89.8467 163.914 89.8482 163.005 89.8491C161.841 89.8505 160.677 89.8566 159.512 89.8639C158.617 89.8687 157.722 89.87 156.827 89.8704C156.398 89.8711 155.969 89.8732 155.54 89.8765C154.939 89.8809 154.338 89.8804 153.737 89.8788C153.56 89.8811 153.383 89.8835 153.201 89.8859C152.094 89.8764 151.384 89.734 150.528 89.0226C149.829 87.8714 149.663 87.0151 149.661 85.6785C149.66 85.5018 149.659 85.3251 149.658 85.1431C149.655 84.554 149.657 83.965 149.659 83.3759C149.658 82.9521 149.657 82.5284 149.655 82.1046C149.652 80.9544 149.653 79.8042 149.656 78.654C149.658 77.4452 149.656 76.2365 149.655 75.0277C149.653 72.9938 149.655 70.96 149.659 68.9261C149.663 66.5876 149.662 64.2491 149.657 61.9105C149.654 59.8949 149.653 57.8793 149.655 55.8637C149.657 54.6636 149.657 53.4635 149.654 52.2633C149.625 36.316 149.625 36.316 153.862 30.8646C154.027 30.6482 154.193 30.4319 154.363 30.209C158.511 25.2122 165.187 23.7869 171.372 23.1886C175.455 22.8125 179.562 22.8825 183.659 22.8886Z" fill="#040707"/>
<path d="M376.284 22.8802C377.127 22.8805 377.97 22.8792 378.814 22.878C380.801 22.8752 382.789 22.8751 384.776 22.8766C386.822 22.8782 388.868 22.875 390.913 22.8696C392.68 22.8651 394.446 22.8635 396.212 22.8644C397.263 22.8648 398.314 22.8642 399.365 22.8606C400.349 22.8574 401.333 22.8579 402.318 22.8612C402.678 22.8618 403.038 22.8611 403.399 22.859C403.891 22.8564 404.383 22.8589 404.876 22.8617C405.151 22.8616 405.426 22.8616 405.709 22.8615C406.568 22.9721 407.042 23.211 407.734 23.7224C408.338 24.6227 408.316 25.009 408.326 26.0762C408.33 26.404 408.334 26.7318 408.338 27.0695C408.34 27.4278 408.341 27.7861 408.342 28.1444C408.345 28.512 408.347 28.8796 408.349 29.2471C408.354 30.0178 408.356 30.7884 408.356 31.5591C408.358 32.5453 408.367 33.5312 408.379 34.5173C408.387 35.2766 408.389 36.0359 408.389 36.7953C408.39 37.1588 408.393 37.5223 408.398 37.8857C408.405 38.3948 408.403 38.904 408.401 39.4131C408.402 39.7025 408.403 39.9919 408.405 40.2901C408.197 41.3144 407.769 41.6925 406.965 42.3431C406.175 42.6052 405.633 42.6313 404.804 42.6334C404.515 42.6348 404.226 42.6362 403.929 42.6376C403.453 42.638 403.453 42.638 402.967 42.6384C402.454 42.6404 401.941 42.6424 401.429 42.6445C400.877 42.6464 400.325 42.6478 399.774 42.649C398.622 42.6518 397.471 42.6569 396.32 42.6626C393.047 42.6784 389.773 42.6921 386.499 42.7006C384.692 42.7053 382.884 42.7127 381.076 42.723C380.12 42.7284 379.164 42.7324 378.209 42.7329C377.14 42.7336 376.073 42.7401 375.004 42.747C374.69 42.7463 374.376 42.7455 374.052 42.7447C372.004 42.7645 370.36 43.0397 368.548 44.0011C366.293 46.5644 366.666 50.5573 366.664 53.7303C366.663 54.1006 366.661 54.4708 366.66 54.841C366.657 55.6333 366.655 56.4255 366.653 57.2177C366.651 58.4708 366.645 59.7239 366.64 60.9771C366.624 64.5386 366.61 68.1002 366.602 71.6618C366.597 73.6327 366.589 75.6036 366.579 77.5745C366.574 78.6159 366.57 79.6574 366.569 80.6989C366.568 81.6769 366.564 82.6548 366.558 83.6328C366.556 83.9913 366.555 84.3499 366.556 84.7084C366.557 85.1982 366.553 85.688 366.549 86.1778C366.548 86.4517 366.547 86.7256 366.546 87.0078C366.407 88.0577 365.967 88.725 365.237 89.4785C364.417 89.9125 363.65 89.8967 362.744 89.8909C362.458 89.8935 362.458 89.8935 362.166 89.8962C361.537 89.9009 360.908 89.8999 360.279 89.8984C359.84 89.8996 359.402 89.9009 358.964 89.9025C358.046 89.9048 357.128 89.9041 356.21 89.9016C355.034 89.8987 353.859 89.9038 352.683 89.9113C351.778 89.916 350.873 89.9159 349.969 89.9144C349.535 89.9144 349.102 89.9159 348.668 89.9191C348.062 89.9229 347.456 89.9202 346.849 89.9158C346.671 89.9183 346.492 89.9207 346.309 89.9233C345.427 89.91 344.93 89.802 344.177 89.3334C343.131 88.2607 343.048 87.4576 343.045 85.9739C343.044 85.7953 343.043 85.6168 343.042 85.4329C343.04 84.8346 343.041 84.2363 343.042 83.638C343.041 83.2089 343.039 82.7797 343.038 82.3506C343.034 81.1835 343.034 80.0165 343.035 78.8494C343.035 77.8722 343.034 76.8951 343.033 75.918C343.03 73.6079 343.03 71.2978 343.031 68.9877C343.033 66.6155 343.03 64.2434 343.024 61.8713C343.02 59.8284 343.018 57.7855 343.019 55.7426C343.019 54.5255 343.019 53.3084 343.015 52.0913C342.969 35.0411 342.969 35.0411 348.793 28.9774C356.05 22.383 367.113 22.8742 376.284 22.8802Z" fill="#040707"/>
</g>
<defs>
<clipPath id="clip0_15_395">
<rect width="498" height="113" fill="white"/>
</clipPath>
</defs>
</svg>
