<svg width="33" height="32" viewBox="0 0 33 32" fill="none" xmlns="http://www.w3.org/2000/svg">
<path d="M3.83301 16.0002C3.83301 10.029 3.83301 7.04348 5.688 5.18849C7.54299 3.3335 10.5286 3.3335 16.4997 3.3335C22.4708 3.3335 25.4564 3.3335 27.3114 5.18849C29.1663 7.04348 29.1663 10.029 29.1663 16.0002C29.1663 21.9713 29.1663 24.9568 27.3114 26.8118C25.4564 28.6668 22.4708 28.6668 16.4997 28.6668C10.5286 28.6668 7.54299 28.6668 5.688 26.8118C3.83301 24.9568 3.83301 21.9713 3.83301 16.0002Z" stroke="white" stroke-width="1.5" stroke-linejoin="round"/>
<path d="M22.5 16C22.5 19.3137 19.8137 22 16.5 22C13.1863 22 10.5 19.3137 10.5 16C10.5 12.6863 13.1863 10 16.5 10C19.8137 10 22.5 12.6863 22.5 16Z" stroke="white" stroke-width="1.5"/>
<path d="M23.8438 8.66699L23.8318 8.66699" stroke="white" stroke-width="2" stroke-linecap="round" stroke-linejoin="round"/>
</svg>
