<svg width="1487" height="184" viewBox="0 0 1487 184" fill="none" xmlns="http://www.w3.org/2000/svg">
<path d="M24.34 0.499987H48.19C67.27 0.499987 70.45 4.47498 78.93 16.135L176.45 145.455C177.245 146.78 178.305 147.31 179.895 147.31H182.28C183.605 147.31 184.4 146.515 184.4 144.66V6.32999C184.4 2.355 186.255 0.499987 190.23 0.499987H218.585C222.56 0.499987 224.415 2.355 224.415 6.32999V158.44C224.415 179.375 217.26 186 200.565 186H176.98C157.9 186 154.72 182.025 146.505 170.365L48.72 41.045C47.66 39.72 46.865 39.19 45.275 39.19H42.89C41.3 39.19 40.77 39.985 40.77 41.84V180.17C40.77 184.145 38.65 186 34.94 186H6.585C2.61 186 0.755 184.145 0.755 180.17V28.06C0.755 7.125 7.645 0.499987 24.34 0.499987ZM319.428 40.515H394.423C440.798 40.515 457.493 54.56 457.493 94.045V132.47C457.493 171.955 440.798 186 394.423 186H319.428C273.053 186 256.623 171.955 256.623 132.47V94.045C256.623 54.56 273.053 40.515 319.428 40.515ZM294.253 100.67V125.845C294.253 148.105 300.083 153.67 323.138 153.67H390.713C414.033 153.67 419.863 148.105 419.863 125.845V100.67C419.863 78.675 414.033 73.11 390.713 73.11H323.138C300.083 73.11 294.253 78.675 294.253 100.67ZM497.816 0.499987H639.856C679.341 0.499987 696.831 18.255 696.831 54.825V70.195C696.831 100.935 684.641 118.955 658.406 124.255L702.661 179.11C704.781 181.76 703.456 186 699.216 186H663.706C659.466 186 658.141 184.94 656.286 182.555L614.151 128.76H530.146V180.17C530.146 184.145 528.291 186 524.316 186H495.696C491.721 186 489.866 184.145 489.866 180.17V8.45C489.866 3.14998 492.516 0.499987 497.816 0.499987ZM530.146 93.78H631.641C649.661 93.78 656.286 87.42 656.286 71.52V60.39C656.286 44.225 649.396 37.6 631.641 37.6H533.591C531.206 37.6 530.146 38.395 530.146 40.515V93.78ZM728.267 40.515H842.482C889.387 40.515 905.552 55.09 905.552 94.045V164.8C905.552 181.76 901.577 186 885.942 186H759.802C729.327 186 718.992 175.665 718.992 148.37V135.65C718.992 111.005 731.182 99.08 759.802 99.08H867.922V96.43C867.922 79.47 861.562 73.375 838.772 73.375H728.267C725.087 73.375 723.497 71.785 723.497 68.605V45.285C723.497 42.105 725.087 40.515 728.267 40.515ZM859.707 154.465C865.537 154.465 867.922 152.08 867.922 145.72V126.375H770.932C759.537 126.375 756.357 129.555 756.357 137.505V143.07C756.357 152.08 759.537 154.465 770.932 154.465H859.707ZM1095.83 0.499987H1212.43C1216.14 0.499987 1218.26 2.355 1218.26 6.32999V32.035C1218.26 35.745 1216.14 37.865 1212.43 37.865H1096.09C1068.8 37.865 1061.64 45.55 1061.64 73.375V74.7H1210.84C1214.55 74.7 1216.67 76.555 1216.67 80.53V104.115C1216.67 108.09 1214.55 109.945 1210.84 109.945H1061.64V113.125C1061.64 140.95 1068.8 148.635 1096.09 148.635H1212.43C1216.14 148.635 1218.26 150.755 1218.26 154.465V180.17C1218.26 184.145 1216.14 186 1212.43 186H1095.83C1042.03 186 1021.63 166.655 1021.63 116.04V70.46C1021.63 19.845 1042.03 0.499987 1095.83 0.499987ZM1239.09 0.499987H1273.54C1276.98 0.499987 1278.31 1.29499 1279.63 3.94499L1356.75 146.515C1357.54 147.84 1358.6 148.37 1359.93 148.37H1361.25C1362.58 148.37 1363.64 147.84 1364.43 146.515L1441.02 3.94499C1442.34 1.29499 1443.67 0.499987 1447.11 0.499987H1481.3C1485.54 0.499987 1486.33 3.14998 1484.48 6.59499L1397.82 165.86C1389.08 182.025 1380.86 186 1369.73 186H1354.1C1340.32 186 1332.1 182.025 1323.62 165.86L1235.91 6.59499C1234.05 3.14998 1234.85 0.499987 1239.09 0.499987Z" fill="url(#paint0_linear_182_15020)"/>
<defs>
<linearGradient id="paint0_linear_182_15020" x1="736" y1="186" x2="736" y2="-19" gradientUnits="userSpaceOnUse">
<stop stop-color="white" stop-opacity="0.12"/>
<stop offset="1" stop-color="white" stop-opacity="0"/>
</linearGradient>
</defs>
</svg>
