<svg width="33" height="32" viewBox="0 0 33 32" fill="none" xmlns="http://www.w3.org/2000/svg">
<path d="M16.4998 27.3332C18.9128 27.3332 21.2266 27.0948 23.3711 26.6577C26.0496 26.1117 27.3889 25.8387 28.611 24.2673C29.8332 22.696 29.8332 20.8922 29.8332 17.2846V14.7151C29.8332 11.1075 29.8332 9.30366 28.611 7.73234C27.3889 6.16101 26.0496 5.888 23.3711 5.342C21.2266 4.90487 18.9128 4.6665 16.4998 4.6665C14.0869 4.6665 11.773 4.90487 9.62858 5.342C6.95005 5.888 5.61078 6.16101 4.38864 7.73233C3.1665 9.30366 3.1665 11.1075 3.1665 14.7151V17.2846C3.1665 20.8922 3.1665 22.696 4.38864 24.2673C5.61078 25.8387 6.95005 26.1117 9.62858 26.6577C11.773 27.0948 14.0869 27.3332 16.4998 27.3332Z" stroke="white" stroke-width="1.5"/>
<path d="M21.7828 16.4168C21.585 17.2246 20.5321 17.8048 18.4265 18.9651C16.1363 20.2271 14.9912 20.8581 14.0637 20.615C13.7496 20.5326 13.4603 20.3879 13.2173 20.1914C12.5 19.6115 12.5 18.4076 12.5 15.9997C12.5 13.5918 12.5 12.3878 13.2173 11.8079C13.4603 11.6115 13.7496 11.4667 14.0637 11.3844C14.9913 11.1413 16.1363 11.7723 18.4265 13.0342C20.5321 14.1946 21.585 14.7747 21.7828 15.5825C21.8502 15.8574 21.8502 16.142 21.7828 16.4168Z" stroke="white" stroke-width="1.5" stroke-linejoin="round"/>
</svg>
